<svg width="58" height="58" viewBox="0 0 58 58" fill="none" xmlns="http://www.w3.org/2000/svg">
<g clip-path="url(#clip0_16_274)">
<path d="M36.3706 12.0834C38.7311 12.544 40.9004 13.6984 42.601 15.399C44.3015 17.0995 45.4559 19.2688 45.9165 21.6293M36.3706 2.41678C41.2747 2.96158 45.8478 5.1577 49.339 8.64455C52.8303 12.1314 55.0322 16.7017 55.5831 21.6051M53.1665 40.8901V48.1401C53.1692 48.8132 53.0313 49.4794 52.7617 50.096C52.4921 50.7127 52.0966 51.2663 51.6006 51.7213C51.1047 52.1763 50.5192 52.5227 49.8816 52.7383C49.244 52.9539 48.5684 53.034 47.8981 52.9734C40.4616 52.1654 33.3184 49.6243 27.0423 45.5543C21.2032 41.8439 16.2527 36.8934 12.5423 31.0543C8.45808 24.7497 5.91638 17.5717 5.12313 10.1018C5.06274 9.43349 5.14216 8.75995 5.35634 8.12404C5.57052 7.48813 5.91476 6.90378 6.36715 6.4082C6.81954 5.91261 7.37016 5.51666 7.98396 5.24554C8.59776 4.97442 9.26129 4.83408 9.9323 4.83345H17.1823C18.3551 4.8219 19.4921 5.23722 20.3814 6.00198C21.2706 6.76675 21.8515 7.82877 22.0156 8.99011C22.3216 11.3103 22.8891 13.5884 23.7073 15.7809C24.0324 16.6459 24.1028 17.586 23.9101 18.4897C23.7173 19.3935 23.2695 20.223 22.6198 20.8801L19.5506 23.9493C22.9909 29.9995 28.0004 35.009 34.0506 38.4493L37.1198 35.3801C37.7769 34.7304 38.6064 34.2826 39.5102 34.0898C40.4139 33.8971 41.354 33.9675 42.219 34.2926C44.4115 35.1108 46.6896 35.6783 49.0098 35.9843C50.1837 36.1499 51.2558 36.7412 52.0222 37.6457C52.7887 38.5503 53.1959 39.7049 53.1665 40.8901Z" stroke="#1E1E1E" stroke-width="5" stroke-linecap="round" stroke-linejoin="round"/>
</g>
<defs>
<clipPath id="clip0_16_274">
<rect width="58" height="58" fill="white"/>
</clipPath>
</defs>
</svg>
