<svg width="61" height="51" viewBox="0 0 61 51" fill="none" xmlns="http://www.w3.org/2000/svg">
<path fill-rule="evenodd" clip-rule="evenodd" d="M4.19343 21.9553C20.568 14.758 31.4869 10.0131 36.9502 7.72063C52.549 1.1751 55.7903 0.0380678 57.903 0.000522388C58.3676 -0.00773531 59.4066 0.108439 60.0795 0.659349C60.6478 1.12453 60.8041 1.75291 60.879 2.19395C60.9538 2.63499 61.0469 3.63969 60.9729 4.42473C60.1276 13.3851 56.4699 35.1295 54.6091 45.1652C53.8218 49.4117 52.2714 50.8355 50.7705 50.9748C47.5086 51.2777 45.0317 48.8001 41.8724 46.7108C36.9288 43.4415 34.136 41.4064 29.3373 38.2161C23.7916 34.5293 27.3867 32.5029 30.5471 29.1912C31.3742 28.3246 45.7461 15.1365 46.0242 13.9402C46.059 13.7905 46.0913 13.2328 45.7629 12.9383C45.4345 12.6438 44.9497 12.7445 44.5999 12.8246C44.1041 12.9381 36.2066 18.2043 20.9073 28.6232C18.6656 30.1761 16.6352 30.9327 14.816 30.8931C12.8104 30.8494 8.95259 29.7491 6.08468 28.8086C2.56706 27.655 -0.228668 27.0451 0.0147778 25.086C0.141579 24.0656 1.53446 23.022 4.19343 21.9553Z" fill="black"/>
</svg>
