<svg width="71" height="68" viewBox="0 0 71 68" fill="none" xmlns="http://www.w3.org/2000/svg">
<path d="M65.5248 17.7031C60.7842 9.9375 52.8061 4.14063 43.5561 1.95313C40.5498 1.29688 37.7748 0.96875 34.9998 0.96875C32.1092 0.96875 29.1029 1.29688 26.2123 2.0625C17.0779 4.25 9.21543 9.9375 4.59043 17.8125C1.58418 22.8438 0.0810547 28.3125 0.0810547 34V34.7656C0.19668 40.7813 2.1623 46.6875 5.51543 51.8281C11.0654 60.1406 20.1998 65.6094 30.3748 66.7031C31.7623 66.9219 33.2654 67.0313 34.9998 67.0313C36.3873 67.0313 37.8904 66.9219 39.2779 66.8125C49.6842 65.6094 58.8186 60.1406 64.4842 51.8281C67.9529 46.7969 69.8029 40.8906 70.0342 34.7656V34C70.0342 28.5313 68.4154 22.8438 65.5248 17.7031ZM57.3154 32.4688C56.9686 28.8594 56.0436 25.3594 54.5404 22.0781H61.9404C63.5592 25.3594 64.4842 28.9688 64.7154 32.4688H57.3154ZM5.28418 32.4688C5.51543 28.8594 6.44043 25.3594 8.05918 22.0781H14.7654C13.2623 25.3594 12.4529 28.8594 12.1061 32.4688H5.28418ZM20.5467 22.0781H32.3404V32.4688H17.4248C17.7717 28.75 18.8123 25.25 20.5467 22.0781ZM45.6373 17.1563H37.5436V8.07813C40.2029 10.0469 42.8623 13.1094 45.6373 17.1563ZM32.4561 7.96875V17.1563H23.7842C26.6748 13 29.5654 9.9375 32.4561 7.96875ZM32.4561 37.3906V47.7813H20.8936C19.0436 44.6094 17.8873 41 17.5404 37.3906H32.4561ZM32.4561 52.7031V60.25C29.5654 58.3906 26.6748 55.7656 24.1311 52.7031H32.4561ZM37.6592 60.25V52.5938H46.4467C44.0186 55.7656 41.0123 58.3906 37.6592 60.25ZM37.6592 47.7813V37.3906H52.2279C51.9967 41 51.0717 44.5 49.4529 47.7813H37.6592ZM37.6592 32.4688V22.0781H48.8748C50.6092 25.25 51.7654 28.8594 52.1123 32.4688H37.6592ZM58.8186 17.1563H51.7654C49.2217 13.1094 46.6779 9.82813 44.1342 7.3125C50.0311 9.0625 55.2342 12.5625 58.8186 17.1563ZM25.1717 7.42188C22.6279 9.9375 20.0842 13.2188 17.5404 17.0469H11.2967C14.7654 12.6719 19.6217 9.28125 25.1717 7.42188ZM5.39981 37.3906H12.2217C12.5686 41 13.4936 44.5 14.9967 47.7813H8.98418C7.01855 44.5 5.86231 41 5.39981 37.3906ZM12.6842 52.7031H17.8873C19.7373 55.5469 22.0498 58.1719 24.3623 60.3594C19.8529 58.7188 15.8061 56.0938 12.6842 52.7031ZM46.4467 60.0313C48.7592 57.9531 50.8404 55.4375 52.4592 52.8125C52.4592 52.8125 52.4592 52.7031 52.5748 52.7031H57.3154C54.3092 55.875 50.6092 58.3906 46.4467 60.0313ZM61.0154 47.7813H55.0029C56.3904 44.5 57.1998 41 57.3154 37.3906H64.4842C64.1373 41 62.8654 44.5 61.0154 47.7813Z" fill="#1E1E1E"/>
</svg>
