<svg width="52" height="52" viewBox="0 0 52 52" fill="none" xmlns="http://www.w3.org/2000/svg">
    <path
        d="M38.8337 13.1668H38.857M14.3337 2.66678H37.667C44.1103 2.66678 49.3337 7.89012 49.3337 14.3334V37.6668C49.3337 44.1101 44.1103 49.3334 37.667 49.3334H14.3337C7.89034 49.3334 2.66699 44.1101 2.66699 37.6668V14.3334C2.66699 7.89012 7.89034 2.66678 14.3337 2.66678ZM35.3337 24.5301C35.6216 26.472 35.2899 28.4553 34.3858 30.1978C33.4816 31.9403 32.051 33.3534 30.2975 34.236C28.5439 35.1186 26.5567 35.4258 24.6185 35.114C22.6803 34.8021 20.8898 33.887 19.5016 32.4988C18.1135 31.1107 17.1984 29.3202 16.8865 27.3819C16.5746 25.4437 16.8818 23.4565 17.7644 21.703C18.647 19.9494 20.0601 18.5188 21.8026 17.6147C23.5452 16.7105 25.5284 16.3788 27.4703 16.6668C29.4511 16.9605 31.285 17.8835 32.7009 19.2995C34.1169 20.7155 35.0399 22.5493 35.3337 24.5301Z"
        stroke="#1E1E1E" stroke-width="5" stroke-linecap="round" stroke-linejoin="round" />
</svg>