<svg width="260" height="260" viewBox="0 0 260 260" fill="none" xmlns="http://www.w3.org/2000/svg">
    <path fill-rule="evenodd" clip-rule="evenodd"
        d="M129.5 60C159.047 60 183 83.9324 183 113.455C183 117.058 182.643 120.578 181.963 123.982C177.241 159.535 129.781 200 129.781 200C129.781 200 89.3926 165.564 79.4254 132.315C77.2114 126.45 76 120.094 76 113.455C76 83.9324 99.9528 60 129.5 60Z"
        fill="black" />
    <path
        d="M147.245 150.953C143.922 150.953 140.518 149.846 136.958 147.632C134.981 146.127 134.032 144.309 134.032 142.093C134.032 139.402 135.139 135.763 137.275 131.173C139.015 127.455 139.966 124.448 140.125 122.154C140.281 119.858 140.361 118.277 140.361 117.564C140.361 116.932 140.361 116.615 140.281 116.615C137.511 122.074 136.008 125.397 135.85 126.427C135.744 127.019 135.533 127.573 135.218 128.087C133.634 130.541 131.736 131.805 129.442 131.805C125.645 131.805 123.349 129.907 122.478 126.03C122.334 125.148 122.072 124.304 121.687 123.499C121.372 122.628 120.896 121.361 120.342 119.543C119.552 116.535 119.076 115.032 118.759 115.032C118.681 115.032 118.522 115.824 118.444 117.406C118.366 118.277 118.285 119.226 118.285 120.175C118.285 120.888 118.366 121.837 118.366 123.104C118.463 124.524 118.78 125.896 119.315 127.218C119.71 128.087 120.027 128.958 120.423 129.907C120.839 131.129 121.34 132.317 121.926 133.467C123.27 136.395 123.903 139.243 123.903 142.093C123.903 145.258 121.846 147.552 117.812 148.818C115.289 149.619 112.704 150.017 110.057 150.004C109.266 150.004 107.841 149.926 105.706 149.848C103.569 149.689 101.511 148.977 99.5326 147.632C97.873 146.366 97.002 144.704 97.002 142.805C97.002 140.985 97.5559 138.77 98.5833 136.08C101.511 127.535 102.936 121.283 102.936 117.406C102.856 113.528 102.302 110.444 101.275 108.07C100.562 106.249 100.087 104.034 99.6912 101.581C99.4417 100.247 99.3106 98.9027 99.2979 97.5454V95.7272C99.2979 94.8562 99.6912 93.7484 100.562 92.482C101.67 90.6617 104.044 89.7124 107.446 89.5539C108.476 89.5539 109.425 89.5539 110.454 89.6342C111.543 89.7019 112.624 89.835 113.695 90.0296C117.968 90.6638 121.53 93.0359 124.298 97.0718C126.118 100.237 127.306 103.085 127.86 105.539C128.334 107.596 128.966 109.099 129.837 109.968C129.943 110.093 130.074 110.171 130.232 110.205C130.547 110.205 130.786 109.256 130.786 107.279C130.865 105.378 131.182 103.085 131.736 100.395C133.397 92.1649 139.886 88.0507 151.12 88.0507C152.581 88.0401 153.979 88.3298 155.315 88.9217C157.531 90.1078 158.638 91.6109 158.638 93.4312C158.638 95.2515 158.004 97.6257 156.818 100.552C155.837 102.757 155.101 105.038 154.607 107.4C154.114 109.759 153.875 112.146 153.89 114.558C153.89 120.571 154.998 126.822 157.292 133.467C158.558 137.108 159.192 139.877 159.192 141.854C159.192 143.911 158.241 145.89 156.423 147.789C154.522 149.687 151.755 150.717 148.114 150.953H147.245Z"
        fill="white" />
    <path
        d="M168.5 96.5C165 82 156 80.5 148 79C148 79 155.308 81.9973 159.5 85.2891C164.181 88.965 168.5 96.5 168.5 96.5Z"
        fill="white" />
</svg>