<svg width="260" height="260" viewBox="0 0 260 260" fill="none" xmlns="http://www.w3.org/2000/svg">
    <path fill-rule="evenodd" clip-rule="evenodd"
        d="M127 43C156.823 43 181 67.1766 181 97C181 125.089 159.554 148.169 132.143 150.758V207.571C132.143 210.412 129.84 212.714 127 212.714C124.16 212.714 121.857 210.412 121.857 207.571V150.758C94.4461 148.169 73 125.089 73 97C73 67.1766 97.1766 43 127 43Z"
        fill="black" />
    <path opacity="0.45"
        d="M127 217.857C134.101 217.857 139.857 214.979 139.857 211.429C139.857 207.878 134.101 205 127 205C119.899 205 114.143 207.878 114.143 211.429C114.143 214.979 119.899 217.857 127 217.857Z"
        fill="black" />
    <path
        d="M144.245 129.953C140.922 129.953 137.518 128.846 133.958 126.632C131.981 125.127 131.032 123.309 131.032 121.093C131.032 118.402 132.139 114.763 134.275 110.173C136.015 106.455 136.966 103.448 137.125 101.154C137.281 98.8583 137.361 97.2769 137.361 96.5644C137.361 95.9323 137.361 95.6152 137.281 95.6152C134.511 101.074 133.008 104.397 132.85 105.427C132.744 106.019 132.533 106.573 132.218 107.087C130.634 109.541 128.736 110.805 126.442 110.805C122.645 110.805 120.349 108.907 119.478 105.03C119.334 104.148 119.072 103.304 118.687 102.499C118.372 101.628 117.896 100.361 117.342 98.5433C116.552 95.5348 116.076 94.0317 115.759 94.0317C115.681 94.0317 115.522 94.8245 115.444 96.4059C115.366 97.2769 115.285 98.2262 115.285 99.1754C115.285 99.8879 115.366 100.837 115.366 102.104C115.463 103.524 115.78 104.896 116.315 106.218C116.71 107.087 117.027 107.958 117.423 108.907C117.839 110.129 118.34 111.317 118.926 112.467C120.27 115.395 120.903 118.243 120.903 121.093C120.903 124.258 118.846 126.552 114.812 127.818C112.289 128.619 109.704 129.017 107.057 129.004C106.266 129.004 104.841 128.926 102.706 128.848C100.569 128.689 98.5115 127.977 96.5326 126.632C94.873 125.366 94.002 123.704 94.002 121.805C94.002 119.985 94.5559 117.77 95.5833 115.08C98.5115 106.535 99.9364 100.283 99.9364 96.4059C99.8561 92.5285 99.3022 89.4439 98.2747 87.0697C97.5622 85.2494 97.0865 83.0338 96.6912 80.5813C96.4417 79.2473 96.3106 77.9027 96.2979 76.5454V74.7272C96.2979 73.8562 96.6912 72.7484 97.5622 71.482C98.67 69.6617 101.044 68.7124 104.446 68.5539C105.476 68.5539 106.425 68.5539 107.454 68.6342C108.543 68.7019 109.624 68.835 110.695 69.0296C114.968 69.6638 118.531 72.0359 121.298 76.0718C123.118 79.2367 124.306 82.0845 124.86 84.5391C125.334 86.5961 125.966 88.0993 126.837 88.9682C126.943 89.093 127.074 89.1712 127.232 89.205C127.547 89.205 127.786 88.2558 127.786 86.279C127.865 84.3784 128.182 82.0845 128.736 79.3953C130.397 71.1649 136.886 67.0507 148.12 67.0507C149.581 67.0401 150.979 67.3298 152.315 67.9217C154.531 69.1078 155.638 70.6109 155.638 72.4312C155.638 74.2515 155.004 76.6257 153.818 79.5518C152.837 81.7568 152.101 84.038 151.607 86.3995C151.114 88.7589 150.875 91.1458 150.89 93.5581C150.89 99.5708 151.998 105.822 154.292 112.467C155.558 116.108 156.192 118.877 156.192 120.854C156.192 122.911 155.241 124.89 153.423 126.789C151.522 128.687 148.755 129.717 145.114 129.953H144.245Z"
        fill="white" />
</svg>