<svg width="1260" height="752" viewBox="0 0 1260 752" fill="none" xmlns="http://www.w3.org/2000/svg">
<mask id="mask0_20_2634" style="mask-type:luminance" maskUnits="userSpaceOnUse" x="34" y="-362" width="1515" height="1049">
<path d="M213.574 -361.979L1548.03 352.382L1369 686.82L34.5431 -27.5407L213.574 -361.979Z" fill="white"/>
</mask>
<g mask="url(#mask0_20_2634)">
<mask id="mask1_20_2634" style="mask-type:luminance" maskUnits="userSpaceOnUse" x="-11" y="-126" width="1642" height="596">
<path d="M13.1452 -125.145L1630.36 394.442L1606.36 469.166L-10.8595 -50.4214L13.1452 -125.145Z" fill="white"/>
</mask>
<g mask="url(#mask1_20_2634)">
<mask id="mask2_20_2634" style="mask-type:luminance" maskUnits="userSpaceOnUse" x="-11" y="-126" width="1642" height="596">
<path d="M13.1462 -125.145L1630.36 394.442L1606.36 469.166L-10.8585 -50.4214L13.1462 -125.145Z" fill="white"/>
</mask>
<g mask="url(#mask2_20_2634)">
<path d="M22.5674 -122.113L1620.52 391.278L1596.5 466.044L-1.45157 -47.3476L22.5674 -122.113Z" fill="#FDE508"/>
<path d="M22.5674 -122.113L1620.52 391.278L1596.5 466.044L-1.45157 -47.3476L22.5674 -122.113Z" fill="#FDE508"/>
</g>
</g>
</g>
<mask id="mask3_20_2634" style="mask-type:luminance" maskUnits="userSpaceOnUse" x="154" y="-61" width="59" height="65">
<path d="M179.251 -60.2943L212.201 -42.6558L187.507 3.47358L154.557 -14.165L179.251 -60.2943Z" fill="white"/>
</mask>
<g mask="url(#mask3_20_2634)">
<mask id="mask4_20_2634" style="mask-type:luminance" maskUnits="userSpaceOnUse" x="-11" y="-126" width="1642" height="596">
<path d="M13.1433 -125.145L1630.36 394.442L1606.35 469.166L-10.8614 -50.4217L13.1433 -125.145Z" fill="white"/>
</mask>
<g mask="url(#mask4_20_2634)">
<mask id="mask5_20_2634" style="mask-type:luminance" maskUnits="userSpaceOnUse" x="-11" y="-126" width="1642" height="596">
<path d="M13.1433 -125.145L1630.36 394.442L1606.35 469.166L-10.8614 -50.4217L13.1433 -125.145Z" fill="white"/>
</mask>
<g mask="url(#mask5_20_2634)">
<path d="M185.068 -46.2918L201.162 -41.1211L203.203 -47.4716L177.811 -55.6249L163.465 -10.9773L188.854 -2.81752L190.895 -9.16798L174.809 -14.3352L179.003 -27.3987L191.769 -23.2973L193.807 -29.6413L181.042 -33.7428L185.068 -46.2918Z" fill="black"/>
</g>
</g>
</g>
<mask id="mask6_20_2634" style="mask-type:luminance" maskUnits="userSpaceOnUse" x="200" y="-45" width="56" height="62">
<path d="M223.965 -44.8361L255.267 -28.0795L231.455 16.4024L200.153 -0.354179L223.965 -44.8361Z" fill="white"/>
</mask>
<g mask="url(#mask6_20_2634)">
<mask id="mask7_20_2634" style="mask-type:luminance" maskUnits="userSpaceOnUse" x="-11" y="-126" width="1642" height="596">
<path d="M13.1443 -125.146L1630.36 394.442L1606.35 469.166L-10.8605 -50.4219L13.1443 -125.146Z" fill="white"/>
</mask>
<g mask="url(#mask7_20_2634)">
<mask id="mask8_20_2634" style="mask-type:luminance" maskUnits="userSpaceOnUse" x="-11" y="-126" width="1642" height="596">
<path d="M13.1443 -125.146L1630.36 394.442L1606.35 469.166L-10.8605 -50.4219L13.1443 -125.146Z" fill="white"/>
</mask>
<g mask="url(#mask8_20_2634)">
<path d="M217.401 -31.1037C213.296 -18.3315 230.911 -10.8064 227.971 -1.64959C226.952 1.52243 224.725 2.11025 221.773 1.15932C218.824 0.218279 217.359 -1.55992 218.378 -4.73194L219.397 -7.90395L210.615 -10.7253L209.736 -8.00003C207.433 -0.837145 210.857 4.73813 220.004 7.68067C229.161 10.6202 235.185 8.07425 237.485 0.917808C241.586 -11.8479 223.975 -19.3795 226.921 -28.5329C227.94 -31.7049 230.043 -32.417 232.989 -31.4695C235.941 -30.5186 237.261 -28.7934 236.217 -25.5437L235.627 -23.6987L244.408 -20.8774L244.862 -22.2821C247.161 -29.4385 243.815 -34.9888 234.739 -37.9097C225.66 -40.8243 219.7 -38.2602 217.401 -31.1037Z" fill="black"/>
</g>
</g>
</g>
<mask id="mask9_20_2634" style="mask-type:luminance" maskUnits="userSpaceOnUse" x="231" y="-35" width="55" height="60">
<path d="M254.618 -34.7856L285.92 -18.029L262.99 24.8054L231.688 8.04876L254.618 -34.7856Z" fill="white"/>
</mask>
<g mask="url(#mask9_20_2634)">
<mask id="mask10_20_2634" style="mask-type:luminance" maskUnits="userSpaceOnUse" x="-11" y="-126" width="1642" height="596">
<path d="M13.1452 -125.146L1630.36 394.442L1606.36 469.166L-10.8595 -50.4219L13.1452 -125.146Z" fill="white"/>
</mask>
<g mask="url(#mask10_20_2634)">
<mask id="mask11_20_2634" style="mask-type:luminance" maskUnits="userSpaceOnUse" x="-11" y="-126" width="1642" height="596">
<path d="M13.1462 -125.146L1630.36 394.442L1606.36 469.166L-10.8585 -50.4219L13.1462 -125.146Z" fill="white"/>
</mask>
<g mask="url(#mask11_20_2634)">
<path d="M262.857 2.55217L260.815 8.90263C259.796 12.0746 257.569 12.6625 254.617 11.7115C251.662 10.767 250.203 8.99229 251.222 5.82028L258.953 -18.2417C259.972 -21.4137 262.214 -22.0762 265.169 -21.1317C268.121 -20.1808 269.59 -18.409 268.546 -15.1593L267.005 -10.3625L275.786 -7.54117L277.188 -11.8913C279.484 -19.0576 276.067 -24.6294 266.913 -27.5754C257.763 -30.5115 251.732 -27.969 249.433 -20.8125L241.963 2.43702C239.664 9.59347 243.084 15.1752 252.234 18.1113C261.388 21.0573 267.419 18.5147 269.718 11.3583L271.613 5.45117L262.832 2.62985L262.857 2.55217Z" fill="black"/>
</g>
</g>
</g>
<mask id="mask12_20_2634" style="mask-type:luminance" maskUnits="userSpaceOnUse" x="263" y="-26" width="58" height="65">
<path d="M287.801 -25.501L320.75 -7.86245L296.056 38.2669L263.107 20.6284L287.801 -25.501Z" fill="white"/>
</mask>
<g mask="url(#mask12_20_2634)">
<mask id="mask13_20_2634" style="mask-type:luminance" maskUnits="userSpaceOnUse" x="-11" y="-126" width="1642" height="596">
<path d="M13.1433 -125.146L1630.36 394.442L1606.35 469.166L-10.8614 -50.4219L13.1433 -125.146Z" fill="white"/>
</mask>
<g mask="url(#mask13_20_2634)">
<mask id="mask14_20_2634" style="mask-type:luminance" maskUnits="userSpaceOnUse" x="-11" y="-126" width="1642" height="596">
<path d="M13.1423 -125.146L1630.36 394.442L1606.35 469.165L-10.8624 -50.4222L13.1423 -125.146Z" fill="white"/>
</mask>
<g mask="url(#mask14_20_2634)">
<path d="M293.638 -11.4134L309.731 -6.24282L311.77 -12.5868L286.381 -20.7466L272.031 23.9075L297.424 32.0608L299.462 25.7168L283.369 20.5462L287.57 7.48603L300.336 11.5875L302.377 5.23703L289.611 1.13557L293.638 -11.4134Z" fill="black"/>
</g>
</g>
</g>
<mask id="mask15_20_2634" style="mask-type:luminance" maskUnits="userSpaceOnUse" x="293" y="-18" width="63" height="69">
<path d="M319.334 -17.0981L355.578 2.30424L330.003 50.0811L293.758 30.6787L319.334 -17.0981Z" fill="white"/>
</mask>
<g mask="url(#mask15_20_2634)">
<mask id="mask16_20_2634" style="mask-type:luminance" maskUnits="userSpaceOnUse" x="-11" y="-126" width="1642" height="596">
<path d="M13.1443 -125.145L1630.36 394.442L1606.35 469.166L-10.8605 -50.4217L13.1443 -125.145Z" fill="white"/>
</mask>
<g mask="url(#mask16_20_2634)">
<mask id="mask17_20_2634" style="mask-type:luminance" maskUnits="userSpaceOnUse" x="-11" y="-126" width="1642" height="596">
<path d="M13.1452 -125.145L1630.36 394.442L1606.36 469.166L-10.8595 -50.4217L13.1452 -125.145Z" fill="white"/>
</mask>
<g mask="url(#mask17_20_2634)">
<path d="M323.034 40.2891L332.557 43.3498L346.896 -1.30127L338.633 -3.96119L330.051 22.7582L329.039 -7.04354L317.38 -10.7843L303.034 33.8633L311.446 36.5699L321.831 4.24116L323.034 40.2891Z" fill="black"/>
</g>
</g>
</g>
<mask id="mask18_20_2634" style="mask-type:luminance" maskUnits="userSpaceOnUse" x="330" y="-5" width="58" height="65">
<path d="M354.931 -4.40198L387.88 13.2366L363.186 59.3659L330.237 41.7274L354.931 -4.40198Z" fill="white"/>
</mask>
<g mask="url(#mask18_20_2634)">
<mask id="mask19_20_2634" style="mask-type:luminance" maskUnits="userSpaceOnUse" x="-11" y="-126" width="1642" height="596">
<path d="M13.1452 -125.145L1630.36 394.442L1606.36 469.166L-10.8595 -50.4217L13.1452 -125.145Z" fill="white"/>
</mask>
<g mask="url(#mask19_20_2634)">
<mask id="mask20_20_2634" style="mask-type:luminance" maskUnits="userSpaceOnUse" x="-11" y="-126" width="1642" height="596">
<path d="M13.1462 -125.145L1630.36 394.442L1606.36 469.166L-10.8585 -50.4217L13.1462 -125.145Z" fill="white"/>
</mask>
<g mask="url(#mask20_20_2634)">
<path d="M360.88 10.1918L376.896 15.3374L378.934 8.99336L353.545 0.833599L339.199 45.4813L364.588 53.641L366.626 47.297L350.533 42.1264L354.737 29.0598L367.503 33.1613L369.541 26.8172L356.769 22.7123L360.802 10.1668L360.88 10.1918Z" fill="black"/>
</g>
</g>
</g>
<mask id="mask21_20_2634" style="mask-type:luminance" maskUnits="userSpaceOnUse" x="386" y="30" width="24" height="20">
<path d="M391.593 30.0604L409.715 39.7616L404.423 49.6465L386.301 39.9453L391.593 30.0604Z" fill="white"/>
</mask>
<g mask="url(#mask21_20_2634)">
<mask id="mask22_20_2634" style="mask-type:luminance" maskUnits="userSpaceOnUse" x="-11" y="-126" width="1642" height="596">
<path d="M13.1462 -125.146L1630.36 394.442L1606.36 469.166L-10.8585 -50.4219L13.1462 -125.146Z" fill="white"/>
</mask>
<g mask="url(#mask22_20_2634)">
<mask id="mask23_20_2634" style="mask-type:luminance" maskUnits="userSpaceOnUse" x="-11" y="-126" width="1642" height="596">
<path d="M13.1472 -125.146L1630.36 394.442L1606.36 469.166L-10.8575 -50.4219L13.1472 -125.146Z" fill="white"/>
</mask>
<g mask="url(#mask23_20_2634)">
<path d="M389.178 40.4498L406.155 45.9031L408.193 39.559L391.216 34.1058L389.178 40.4498Z" fill="black"/>
</g>
</g>
</g>
<mask id="mask24_20_2634" style="mask-type:luminance" maskUnits="userSpaceOnUse" x="411" y="23" width="58" height="63">
<path d="M435.24 23.7522L468.19 41.3907L444.378 85.8726L411.428 68.2341L435.24 23.7522Z" fill="white"/>
</mask>
<g mask="url(#mask24_20_2634)">
<mask id="mask25_20_2634" style="mask-type:luminance" maskUnits="userSpaceOnUse" x="-11" y="-126" width="1642" height="596">
<path d="M13.1452 -125.146L1630.36 394.442L1606.36 469.166L-10.8595 -50.4219L13.1452 -125.146Z" fill="white"/>
</mask>
<g mask="url(#mask25_20_2634)">
<mask id="mask26_20_2634" style="mask-type:luminance" maskUnits="userSpaceOnUse" x="-11" y="-126" width="1642" height="596">
<path d="M13.1462 -125.146L1630.36 394.442L1606.36 469.166L-10.8585 -50.4219L13.1462 -125.146Z" fill="white"/>
</mask>
<g mask="url(#mask26_20_2634)">
<path d="M419.425 71.2555L434.11 75.9787C443.409 78.9614 449.245 76.5212 451.519 69.4424L458.774 46.8564C461.077 39.6935 457.734 34.385 448.435 31.4023L433.75 26.6791L419.425 71.2555ZM446.269 37.6284C449.224 38.5729 450.612 40.3261 449.593 43.4981L442.123 66.7477C441.104 69.9197 438.955 70.5325 436.003 69.5816L430.759 67.9006L441.007 36.0123L446.247 37.6997L446.269 37.6284Z" fill="black"/>
</g>
</g>
</g>
<mask id="mask27_20_2634" style="mask-type:luminance" maskUnits="userSpaceOnUse" x="446" y="33" width="56" height="63">
<path d="M470.071 33.9192L501.373 50.6758L477.561 95.1577L446.259 78.4011L470.071 33.9192Z" fill="white"/>
</mask>
<g mask="url(#mask27_20_2634)">
<mask id="mask28_20_2634" style="mask-type:luminance" maskUnits="userSpaceOnUse" x="-11" y="-126" width="1642" height="596">
<path d="M13.1433 -125.146L1630.36 394.442L1606.35 469.166L-10.8614 -50.4219L13.1433 -125.146Z" fill="white"/>
</mask>
<g mask="url(#mask28_20_2634)">
<mask id="mask29_20_2634" style="mask-type:luminance" maskUnits="userSpaceOnUse" x="-11" y="-126" width="1642" height="596">
<path d="M13.1423 -125.146L1630.36 394.442L1606.35 469.165L-10.8624 -50.4222L13.1423 -125.146Z" fill="white"/>
</mask>
<g mask="url(#mask29_20_2634)">
<path d="M456.59 71.3961C454.29 78.5526 458.002 84.2241 467.081 87.1386C476.235 90.0846 482.486 87.6102 484.785 80.4538L492.223 57.2785C494.526 50.1156 490.814 44.4441 481.735 41.5296C472.585 38.5935 466.337 41.0614 464.038 48.2178L456.59 71.3961ZM473.573 50.714C474.592 47.542 476.844 46.8765 479.796 47.8274C482.748 48.7783 484.211 50.5466 483.166 53.7963L475.436 77.8583C474.416 81.0303 472.168 81.6894 469.222 80.7419C466.267 79.7974 464.801 78.0192 465.842 74.776L473.573 50.714Z" fill="black"/>
</g>
</g>
</g>
<mask id="mask30_20_2634" style="mask-type:luminance" maskUnits="userSpaceOnUse" x="490" y="46" width="63" height="68">
<path d="M516.548 46.082L552.792 65.4844L527.216 113.261L490.972 93.8589L516.548 46.082Z" fill="white"/>
</mask>
<g mask="url(#mask30_20_2634)">
<mask id="mask31_20_2634" style="mask-type:luminance" maskUnits="userSpaceOnUse" x="-11" y="-126" width="1642" height="596">
<path d="M13.1452 -125.146L1630.36 394.442L1606.36 469.166L-10.8595 -50.4219L13.1452 -125.146Z" fill="white"/>
</mask>
<g mask="url(#mask31_20_2634)">
<mask id="mask32_20_2634" style="mask-type:luminance" maskUnits="userSpaceOnUse" x="-11" y="-126" width="1642" height="596">
<path d="M13.1462 -125.146L1630.36 394.442L1606.36 469.166L-10.8585 -50.4219L13.1462 -125.146Z" fill="white"/>
</mask>
<g mask="url(#mask32_20_2634)">
<path d="M520.461 103.723L529.987 106.778L544.333 62.1302L536.06 59.4732L527.481 86.1862L526.466 56.3909L514.811 52.6437L500.461 97.2977L508.806 99.9763L519.19 67.6476L520.461 103.723Z" fill="black"/>
</g>
</g>
</g>
<mask id="mask33_20_2634" style="mask-type:luminance" maskUnits="userSpaceOnUse" x="529" y="61" width="56" height="60">
<path d="M552.911 61.3081L584.213 78.0647L561.283 120.899L529.981 104.143L552.911 61.3081Z" fill="white"/>
</mask>
<g mask="url(#mask33_20_2634)">
<mask id="mask34_20_2634" style="mask-type:luminance" maskUnits="userSpaceOnUse" x="-11" y="-126" width="1642" height="596">
<path d="M13.1462 -125.145L1630.36 394.442L1606.36 469.166L-10.8585 -50.4214L13.1462 -125.145Z" fill="white"/>
</mask>
<g mask="url(#mask34_20_2634)">
<mask id="mask35_20_2634" style="mask-type:luminance" maskUnits="userSpaceOnUse" x="-11" y="-126" width="1642" height="596">
<path d="M13.1472 -125.145L1630.36 394.442L1606.36 469.166L-10.8575 -50.4214L13.1472 -125.145Z" fill="white"/>
</mask>
<g mask="url(#mask35_20_2634)">
<path d="M539.328 97.976C537.029 105.132 540.74 110.804 549.816 113.725C558.973 116.664 565.224 114.19 567.523 107.034L574.968 83.8618C577.271 76.6989 573.552 71.024 564.473 68.1094C555.323 65.1733 549.075 67.6412 546.773 74.8041L539.328 97.976ZM556.24 77.2722C557.259 74.1002 559.511 73.4347 562.457 74.3822C565.408 75.3331 566.878 77.1049 565.834 80.3546L558.103 104.417C557.084 107.589 554.835 108.248 551.879 107.303C548.934 106.356 547.468 104.577 548.509 101.334L556.24 77.2722Z" fill="black"/>
</g>
</g>
</g>
<mask id="mask36_20_2634" style="mask-type:luminance" maskUnits="userSpaceOnUse" x="558" y="67" width="56" height="63">
<path d="M583.68 67.1814L613.334 83.0561L588.64 129.185L558.986 113.311L583.68 67.1814Z" fill="white"/>
</mask>
<g mask="url(#mask36_20_2634)">
<mask id="mask37_20_2634" style="mask-type:luminance" maskUnits="userSpaceOnUse" x="-11" y="-126" width="1642" height="596">
<path d="M13.1452 -125.145L1630.36 394.442L1606.36 469.166L-10.8595 -50.4214L13.1452 -125.145Z" fill="white"/>
</mask>
<g mask="url(#mask37_20_2634)">
<mask id="mask38_20_2634" style="mask-type:luminance" maskUnits="userSpaceOnUse" x="-11" y="-126" width="1642" height="596">
<path d="M13.1462 -125.145L1630.36 394.442L1606.36 469.166L-10.8585 -50.4214L13.1462 -125.145Z" fill="white"/>
</mask>
<g mask="url(#mask38_20_2634)">
<path d="M579.786 80.5214L589.529 83.6504L577.243 121.883L586.542 124.865L598.825 86.6395L608.568 89.7685L610.606 83.4244L581.825 74.1774L579.786 80.5214Z" fill="black"/>
</g>
</g>
</g>
<mask id="mask39_20_2634" style="mask-type:luminance" maskUnits="userSpaceOnUse" x="605" y="85" width="56" height="62">
<path d="M629.159 85.1688L660.461 101.925L636.649 146.407L605.347 129.651L629.159 85.1688Z" fill="white"/>
</mask>
<g mask="url(#mask39_20_2634)">
<mask id="mask40_20_2634" style="mask-type:luminance" maskUnits="userSpaceOnUse" x="-11" y="-126" width="1642" height="596">
<path d="M13.1433 -125.146L1630.36 394.442L1606.35 469.165L-10.8614 -50.4222L13.1433 -125.146Z" fill="white"/>
</mask>
<g mask="url(#mask40_20_2634)">
<mask id="mask41_20_2634" style="mask-type:luminance" maskUnits="userSpaceOnUse" x="-11" y="-126" width="1642" height="596">
<path d="M13.1423 -125.146L1630.36 394.441L1606.35 469.165L-10.8624 -50.4224L13.1423 -125.146Z" fill="white"/>
</mask>
<g mask="url(#mask41_20_2634)">
<path d="M636.968 122.749L634.926 129.1C633.913 132.275 631.686 132.863 628.734 131.912C625.782 130.961 624.313 129.189 625.332 126.017L633.063 101.955C634.082 98.7832 636.335 98.1177 639.287 99.0686C642.238 100.02 643.708 101.791 642.657 105.038L641.122 109.838L649.904 112.659L651.302 108.299C653.601 101.143 650.184 95.5709 641.03 92.625C631.88 89.6889 625.853 92.2249 623.55 99.3878L616.08 122.637C613.781 129.794 617.201 135.376 626.352 138.312C635.508 141.251 641.529 138.712 643.832 131.549L645.73 125.652L636.943 122.827L636.968 122.749Z" fill="black"/>
</g>
</g>
</g>
<mask id="mask42_20_2634" style="mask-type:luminance" maskUnits="userSpaceOnUse" x="637" y="96" width="60" height="64">
<path d="M661.461 96.1012L696.058 114.622L672.246 159.104L637.649 140.583L661.461 96.1012Z" fill="white"/>
</mask>
<g mask="url(#mask42_20_2634)">
<mask id="mask43_20_2634" style="mask-type:luminance" maskUnits="userSpaceOnUse" x="-11" y="-126" width="1642" height="596">
<path d="M13.1462 -125.146L1630.36 394.442L1606.36 469.166L-10.8585 -50.4219L13.1462 -125.146Z" fill="white"/>
</mask>
<g mask="url(#mask43_20_2634)">
<mask id="mask44_20_2634" style="mask-type:luminance" maskUnits="userSpaceOnUse" x="-11" y="-126" width="1642" height="596">
<path d="M13.1472 -125.146L1630.36 394.442L1606.36 469.166L-10.8575 -50.4219L13.1472 -125.146Z" fill="white"/>
</mask>
<g mask="url(#mask44_20_2634)">
<path d="M674.938 153.349C674.499 151.416 674.95 149.77 675.64 147.631L677.839 140.769C679.334 136.121 678.877 132.225 674.698 129.251C679.304 129.108 682.249 126.793 683.743 122.145L684.855 118.675C687.065 111.81 684.019 107.091 674.348 103.984L660.326 99.4754L645.983 144.133L655.282 147.116L661.118 128.961L664.361 130.001C668.569 131.36 669.917 133.497 668.59 137.63L666.334 144.644C665.175 148.263 665.304 149.119 665.391 150.366L674.913 153.427L674.938 153.349ZM672.114 110.182C675.435 111.248 676.386 113.107 675.367 116.279L673.947 120.71C672.806 124.247 670.288 124.745 666.821 123.627L663.203 122.468L667.612 108.741L672.114 110.182Z" fill="black"/>
</g>
</g>
</g>
<mask id="mask45_20_2634" style="mask-type:luminance" maskUnits="userSpaceOnUse" x="672" y="106" width="56" height="62">
<path d="M696.289 106.268L727.591 123.025L703.779 167.507L672.477 150.75L696.289 106.268Z" fill="white"/>
</mask>
<g mask="url(#mask45_20_2634)">
<mask id="mask46_20_2634" style="mask-type:luminance" maskUnits="userSpaceOnUse" x="-11" y="-126" width="1642" height="596">
<path d="M13.1433 -125.146L1630.36 394.442L1606.35 469.166L-10.8614 -50.4219L13.1433 -125.146Z" fill="white"/>
</mask>
<g mask="url(#mask46_20_2634)">
<mask id="mask47_20_2634" style="mask-type:luminance" maskUnits="userSpaceOnUse" x="-11" y="-126" width="1642" height="596">
<path d="M13.1423 -125.146L1630.36 394.442L1606.35 469.166L-10.8624 -50.4219L13.1423 -125.146Z" fill="white"/>
</mask>
<g mask="url(#mask47_20_2634)">
<path d="M682.729 144.05C680.43 151.207 684.142 156.878 693.221 159.793C702.374 162.739 708.625 160.264 710.925 153.108L718.369 129.936C720.666 122.77 716.954 117.098 707.875 114.184C698.724 111.247 692.477 113.715 690.177 120.872L682.729 144.05ZM699.641 123.346C700.66 120.174 702.906 119.505 705.858 120.456C708.81 121.407 710.279 123.179 709.235 126.429L701.504 150.491C700.485 153.663 698.236 154.322 695.284 153.371C692.329 152.426 690.87 150.652 691.91 147.408L699.641 123.346Z" fill="black"/>
</g>
</g>
</g>
<mask id="mask48_20_2634" style="mask-type:luminance" maskUnits="userSpaceOnUse" x="705" y="117" width="55" height="60">
<path d="M728.59 117.2L759.892 133.957L736.962 176.791L705.66 160.035L728.59 117.2Z" fill="white"/>
</mask>
<g mask="url(#mask48_20_2634)">
<mask id="mask49_20_2634" style="mask-type:luminance" maskUnits="userSpaceOnUse" x="-11" y="-126" width="1642" height="596">
<path d="M13.1433 -125.145L1630.36 394.442L1606.35 469.166L-10.8614 -50.4217L13.1433 -125.145Z" fill="white"/>
</mask>
<g mask="url(#mask49_20_2634)">
<mask id="mask50_20_2634" style="mask-type:luminance" maskUnits="userSpaceOnUse" x="-11" y="-126" width="1642" height="596">
<path d="M13.1423 -125.145L1630.36 394.442L1606.35 469.166L-10.8624 -50.4217L13.1423 -125.145Z" fill="white"/>
</mask>
<g mask="url(#mask50_20_2634)">
<path d="M723.261 131.421C719.156 144.193 736.767 151.725 733.831 160.875C732.812 164.047 730.585 164.635 727.633 163.684C724.678 162.74 723.218 160.965 724.237 157.793L725.25 154.617L716.469 151.796L715.596 154.525C713.293 161.688 716.711 167.259 725.864 170.205C735.014 173.142 741.045 170.599 743.344 163.443C747.446 150.677 729.835 143.145 732.774 133.988C733.793 130.816 735.893 130.111 738.849 131.055C741.8 132.006 743.121 133.731 742.076 136.981L741.486 138.826L750.268 141.647L750.715 140.239C753.014 133.083 749.668 127.533 740.592 124.612C731.513 121.697 725.56 124.265 723.261 131.421Z" fill="black"/>
</g>
</g>
</g>
<mask id="mask51_20_2634" style="mask-type:luminance" maskUnits="userSpaceOnUse" x="737" y="128" width="56" height="60">
<path d="M760.893 128.133L792.195 144.889L769.265 187.724L737.962 170.967L760.893 128.133Z" fill="white"/>
</mask>
<g mask="url(#mask51_20_2634)">
<mask id="mask52_20_2634" style="mask-type:luminance" maskUnits="userSpaceOnUse" x="-11" y="-126" width="1642" height="596">
<path d="M13.1472 -125.145L1630.36 394.442L1606.36 469.166L-10.8575 -50.4214L13.1472 -125.145Z" fill="white"/>
</mask>
<g mask="url(#mask52_20_2634)">
<mask id="mask53_20_2634" style="mask-type:luminance" maskUnits="userSpaceOnUse" x="-11" y="-126" width="1642" height="596">
<path d="M13.1472 -125.145L1630.36 394.442L1606.36 469.166L-10.8575 -50.4217L13.1472 -125.145Z" fill="white"/>
</mask>
<g mask="url(#mask53_20_2634)">
<path d="M754.926 141.597C750.824 154.363 768.435 161.895 765.493 171.041C764.477 174.223 762.249 174.811 759.298 173.86C756.346 172.909 754.877 171.138 755.899 167.959L756.918 164.787L748.137 161.966L747.261 164.701C744.961 171.857 748.375 177.436 757.532 180.375C766.679 183.318 772.71 180.775 775.013 173.612C779.114 160.847 761.503 153.315 764.439 144.165C765.458 140.993 767.561 140.28 770.513 141.231C773.469 142.176 774.785 143.907 773.745 147.151L773.145 148.999L781.936 151.817L782.38 150.415C784.679 143.259 781.336 137.702 772.257 134.788C763.178 131.873 757.228 134.434 754.926 141.597Z" fill="black"/>
</g>
</g>
</g>
<mask id="mask54_20_2634" style="mask-type:luminance" maskUnits="userSpaceOnUse" x="826" y="156" width="55" height="61">
<path d="M849.553 156.519L880.855 173.276L857.925 216.11L826.623 199.354L849.553 156.519Z" fill="white"/>
</mask>
<g mask="url(#mask54_20_2634)">
<mask id="mask55_20_2634" style="mask-type:luminance" maskUnits="userSpaceOnUse" x="-11" y="-126" width="1642" height="596">
<path d="M13.1433 -125.146L1630.36 394.442L1606.35 469.166L-10.8614 -50.4219L13.1433 -125.146Z" fill="white"/>
</mask>
<g mask="url(#mask55_20_2634)">
<mask id="mask56_20_2634" style="mask-type:luminance" maskUnits="userSpaceOnUse" x="-11" y="-126" width="1642" height="596">
<path d="M13.1433 -125.146L1630.36 394.442L1606.35 469.166L-10.8614 -50.4219L13.1433 -125.146Z" fill="white"/>
</mask>
<g mask="url(#mask56_20_2634)">
<path d="M857.497 193.601L855.462 199.955C854.443 203.127 852.215 203.715 849.264 202.764C846.312 201.813 844.843 200.041 845.862 196.869L853.593 172.807C854.612 169.635 856.864 168.97 859.816 169.921C862.768 170.872 864.237 172.643 863.193 175.893L861.652 180.69L870.433 183.511L871.828 179.158C874.13 171.995 870.713 166.423 861.56 163.477C852.409 160.541 846.378 163.083 844.079 170.24L836.609 193.489C834.31 200.646 837.731 206.228 846.881 209.164C856.038 212.103 862.059 209.564 864.361 202.401L866.26 196.504L857.472 193.679L857.497 193.601Z" fill="black"/>
</g>
</g>
</g>
<mask id="mask57_20_2634" style="mask-type:luminance" maskUnits="userSpaceOnUse" x="858" y="165" width="60" height="66">
<path d="M882.735 165.804L917.332 184.324L892.638 230.454L858.041 211.933L882.735 165.804Z" fill="white"/>
</mask>
<g mask="url(#mask57_20_2634)">
<mask id="mask58_20_2634" style="mask-type:luminance" maskUnits="userSpaceOnUse" x="-11" y="-126" width="1642" height="596">
<path d="M13.1433 -125.146L1630.36 394.442L1606.35 469.165L-10.8614 -50.4222L13.1433 -125.146Z" fill="white"/>
</mask>
<g mask="url(#mask58_20_2634)">
<mask id="mask59_20_2634" style="mask-type:luminance" maskUnits="userSpaceOnUse" x="-11" y="-126" width="1642" height="596">
<path d="M13.1423 -125.146L1630.36 394.441L1606.35 469.165L-10.8624 -50.4224L13.1423 -125.146Z" fill="white"/>
</mask>
<g mask="url(#mask59_20_2634)">
<path d="M895.542 224.225C895.103 222.293 895.547 220.643 896.234 218.51L898.443 211.645C899.931 206.993 899.475 203.098 895.299 200.134C899.908 199.984 902.775 197.644 904.27 192.997L905.382 189.527C907.591 182.662 904.545 177.943 894.874 174.835L880.852 170.327L866.509 214.984L875.809 217.967L881.644 199.812L884.887 200.853C889.095 202.211 890.443 204.348 889.116 208.482L886.86 215.496C885.701 219.114 885.831 219.97 885.917 221.217L895.517 224.303L895.542 224.225ZM892.718 181.058C896.036 182.131 896.99 183.983 895.971 187.155L894.544 191.583C893.411 195.124 890.885 195.618 887.416 194.506L883.8 193.341L888.209 179.614L892.718 181.058Z" fill="black"/>
</g>
</g>
</g>
<mask id="mask60_20_2634" style="mask-type:luminance" maskUnits="userSpaceOnUse" x="892" y="179" width="41" height="52">
<path d="M915.801 179.266L932.276 188.085L909.345 230.92L892.871 222.1L915.801 179.266Z" fill="white"/>
</mask>
<g mask="url(#mask60_20_2634)">
<mask id="mask61_20_2634" style="mask-type:luminance" maskUnits="userSpaceOnUse" x="-11" y="-126" width="1642" height="596">
<path d="M13.1452 -125.145L1630.36 394.442L1606.36 469.166L-10.8595 -50.4214L13.1452 -125.145Z" fill="white"/>
</mask>
<g mask="url(#mask61_20_2634)">
<mask id="mask62_20_2634" style="mask-type:luminance" maskUnits="userSpaceOnUse" x="-11" y="-126" width="1642" height="596">
<path d="M13.1462 -125.145L1630.36 394.442L1606.36 469.166L-10.8585 -50.4214L13.1462 -125.145Z" fill="white"/>
</mask>
<g mask="url(#mask62_20_2634)">
<path d="M900.63 225.863L909.936 228.85L924.276 184.198L914.98 181.209L900.63 225.863Z" fill="black"/>
</g>
</g>
</g>
<mask id="mask63_20_2634" style="mask-type:luminance" maskUnits="userSpaceOnUse" x="906" y="178" width="74" height="75">
<path d="M933.393 178.084L979.522 202.778L953.064 252.202L906.935 227.508L933.393 178.084Z" fill="white"/>
</mask>
<g mask="url(#mask63_20_2634)">
<mask id="mask64_20_2634" style="mask-type:luminance" maskUnits="userSpaceOnUse" x="-11" y="-126" width="1642" height="596">
<path d="M13.1462 -125.145L1630.36 394.442L1606.36 469.166L-10.8585 -50.4214L13.1462 -125.145Z" fill="white"/>
</mask>
<g mask="url(#mask64_20_2634)">
<mask id="mask65_20_2634" style="mask-type:luminance" maskUnits="userSpaceOnUse" x="-11" y="-126" width="1642" height="596">
<path d="M13.1472 -125.145L1630.36 394.442L1606.36 469.166L-10.8575 -50.4214L13.1472 -125.145Z" fill="white"/>
</mask>
<g mask="url(#mask65_20_2634)">
<path d="M943.908 190.503L930.994 186.355L916.644 231.009L924.768 233.619L934.913 202.031L931.705 235.85L940.486 238.671L957.202 208.697L946.908 240.735L955.692 243.55L970.038 198.902L957.117 194.75L940.603 224.377L943.908 190.503Z" fill="black"/>
</g>
</g>
</g>
<mask id="mask66_20_2634" style="mask-type:luminance" maskUnits="userSpaceOnUse" x="954" y="196" width="57" height="63">
<path d="M978.872 196.072L1010.17 212.828L985.48 258.957L954.178 242.201L978.872 196.072Z" fill="white"/>
</mask>
<g mask="url(#mask66_20_2634)">
<mask id="mask67_20_2634" style="mask-type:luminance" maskUnits="userSpaceOnUse" x="-11" y="-126" width="1642" height="596">
<path d="M13.1443 -125.146L1630.36 394.442L1606.35 469.166L-10.8605 -50.4219L13.1443 -125.146Z" fill="white"/>
</mask>
<g mask="url(#mask67_20_2634)">
<mask id="mask68_20_2634" style="mask-type:luminance" maskUnits="userSpaceOnUse" x="-11" y="-126" width="1642" height="596">
<path d="M13.1433 -125.146L1630.36 394.442L1606.35 469.165L-10.8614 -50.4222L13.1433 -125.146Z" fill="white"/>
</mask>
<g mask="url(#mask68_20_2634)">
<path d="M984.085 210.413L1000.17 215.59L1002.22 209.239L976.827 201.079L962.477 245.734L987.866 253.893L989.908 247.543L973.815 242.372L978.016 229.312L990.782 233.414L992.824 227.063L980.058 222.962L984.085 210.413Z" fill="black"/>
</g>
</g>
</g>
<mask id="mask69_20_2634" style="mask-type:luminance" maskUnits="userSpaceOnUse" x="999" y="211" width="55" height="61">
<path d="M1023.59 211.53L1053.24 227.405L1029.43 271.887L999.776 256.012L1023.59 211.53Z" fill="white"/>
</mask>
<g mask="url(#mask69_20_2634)">
<mask id="mask70_20_2634" style="mask-type:luminance" maskUnits="userSpaceOnUse" x="-11" y="-126" width="1642" height="596">
<path d="M13.1443 -125.145L1630.36 394.442L1606.35 469.166L-10.8605 -50.4217L13.1443 -125.145Z" fill="white"/>
</mask>
<g mask="url(#mask70_20_2634)">
<mask id="mask71_20_2634" style="mask-type:luminance" maskUnits="userSpaceOnUse" x="-11" y="-126" width="1642" height="596">
<path d="M13.1433 -125.145L1630.36 394.442L1606.35 469.166L-10.8614 -50.4217L13.1433 -125.145Z" fill="white"/>
</mask>
<g mask="url(#mask71_20_2634)">
<path d="M1016.41 225.608C1012.31 238.374 1029.92 245.905 1026.99 255.062C1025.97 258.234 1023.74 258.822 1020.79 257.871C1017.84 256.92 1016.37 255.152 1017.39 251.98L1018.41 248.801L1009.62 245.983L1008.75 248.712C1006.45 255.868 1009.87 261.45 1019.02 264.386C1028.17 267.328 1034.2 264.786 1036.5 257.629C1040.6 244.857 1022.99 237.326 1025.93 228.179C1026.95 225.007 1029.05 224.291 1032 225.242C1034.95 226.193 1036.27 227.918 1035.23 231.168L1034.64 233.013L1043.42 235.834L1043.88 234.43C1046.17 227.27 1042.83 221.713 1033.75 218.798C1024.67 215.884 1018.71 218.451 1016.41 225.608Z" fill="black"/>
</g>
</g>
</g>
<mask id="mask72_20_2634" style="mask-type:luminance" maskUnits="userSpaceOnUse" x="1030" y="221" width="56" height="62">
<path d="M1054.24 221.58L1085.54 238.337L1061.73 282.819L1030.43 266.062L1054.24 221.58Z" fill="white"/>
</mask>
<g mask="url(#mask72_20_2634)">
<mask id="mask73_20_2634" style="mask-type:luminance" maskUnits="userSpaceOnUse" x="-11" y="-126" width="1642" height="596">
<path d="M13.1443 -125.145L1630.36 394.442L1606.35 469.166L-10.8605 -50.4217L13.1443 -125.145Z" fill="white"/>
</mask>
<g mask="url(#mask73_20_2634)">
<mask id="mask74_20_2634" style="mask-type:luminance" maskUnits="userSpaceOnUse" x="-11" y="-126" width="1642" height="596">
<path d="M13.1443 -125.145L1630.36 394.442L1606.35 469.166L-10.8605 -50.4217L13.1443 -125.145Z" fill="white"/>
</mask>
<g mask="url(#mask74_20_2634)">
<path d="M1061.87 259.264L1059.83 265.614C1058.81 268.786 1056.58 269.374 1053.63 268.423C1050.68 267.472 1049.21 265.704 1050.23 262.532L1057.96 238.47C1058.98 235.298 1061.23 234.629 1064.18 235.58C1067.13 236.531 1068.6 238.303 1067.56 241.552L1066.02 246.349L1074.8 249.171L1076.2 244.811C1078.5 237.654 1075.08 232.082 1065.92 229.136C1056.77 226.2 1050.74 228.743 1048.44 235.899L1040.97 259.149C1038.68 266.305 1042.1 271.887 1051.25 274.823C1060.4 277.763 1066.42 275.223 1068.73 268.06L1070.62 262.163L1061.84 259.342L1061.87 259.264Z" fill="black"/>
</g>
</g>
</g>
<mask id="mask75_20_2634" style="mask-type:luminance" maskUnits="userSpaceOnUse" x="1062" y="230" width="57" height="64">
<path d="M1087.42 230.865L1118.72 247.621L1094.03 293.751L1062.73 276.994L1087.42 230.865Z" fill="white"/>
</mask>
<g mask="url(#mask75_20_2634)">
<mask id="mask76_20_2634" style="mask-type:luminance" maskUnits="userSpaceOnUse" x="-11" y="-126" width="1642" height="596">
<path d="M13.1433 -125.146L1630.36 394.442L1606.35 469.165L-10.8614 -50.4222L13.1433 -125.146Z" fill="white"/>
</mask>
<g mask="url(#mask76_20_2634)">
<mask id="mask77_20_2634" style="mask-type:luminance" maskUnits="userSpaceOnUse" x="-11" y="-126" width="1642" height="596">
<path d="M13.1423 -125.146L1630.36 394.441L1606.35 469.165L-10.8624 -50.4224L13.1423 -125.146Z" fill="white"/>
</mask>
<g mask="url(#mask77_20_2634)">
<path d="M1092.58 245.276L1108.67 250.443L1110.71 244.093L1085.32 235.939L1070.97 280.587L1096.36 288.747L1098.4 282.396L1082.31 277.229L1086.51 264.166L1099.27 268.267L1101.31 261.923L1088.55 257.822L1092.58 245.276Z" fill="black"/>
</g>
</g>
</g>
<mask id="mask78_20_2634" style="mask-type:luminance" maskUnits="userSpaceOnUse" x="1093" y="239" width="63" height="68">
<path d="M1118.96 239.268L1155.2 258.67L1129.63 306.447L1093.38 287.045L1118.96 239.268Z" fill="white"/>
</mask>
<g mask="url(#mask78_20_2634)">
<mask id="mask79_20_2634" style="mask-type:luminance" maskUnits="userSpaceOnUse" x="-11" y="-126" width="1642" height="596">
<path d="M13.1452 -125.145L1630.36 394.442L1606.36 469.166L-10.8595 -50.4217L13.1452 -125.145Z" fill="white"/>
</mask>
<g mask="url(#mask79_20_2634)">
<mask id="mask80_20_2634" style="mask-type:luminance" maskUnits="userSpaceOnUse" x="-11" y="-126" width="1642" height="596">
<path d="M13.1462 -125.145L1630.36 394.442L1606.36 469.166L-10.8585 -50.4217L13.1462 -125.145Z" fill="white"/>
</mask>
<g mask="url(#mask80_20_2634)">
<path d="M1121.97 296.975L1131.49 300.036L1145.84 255.382L1137.58 252.729L1128.99 279.445L1128.05 249.668L1116.39 245.924L1102.05 290.575L1110.39 293.25L1120.77 260.931L1121.97 296.975Z" fill="black"/>
</g>
</g>
</g>
<mask id="mask81_20_2634" style="mask-type:luminance" maskUnits="userSpaceOnUse" x="1129" y="251" width="59" height="65">
<path d="M1154.55 251.964L1187.5 269.602L1162.81 315.732L1129.86 298.093L1154.55 251.964Z" fill="white"/>
</mask>
<g mask="url(#mask81_20_2634)">
<mask id="mask82_20_2634" style="mask-type:luminance" maskUnits="userSpaceOnUse" x="-11" y="-126" width="1642" height="596">
<path d="M13.1462 -125.145L1630.36 394.442L1606.36 469.166L-10.8585 -50.4214L13.1462 -125.145Z" fill="white"/>
</mask>
<g mask="url(#mask82_20_2634)">
<mask id="mask83_20_2634" style="mask-type:luminance" maskUnits="userSpaceOnUse" x="-11" y="-126" width="1642" height="596">
<path d="M13.1472 -125.145L1630.36 394.442L1606.36 469.166L-10.8575 -50.4214L13.1472 -125.145Z" fill="white"/>
</mask>
<g mask="url(#mask83_20_2634)">
<path d="M1159.82 266.878L1175.9 272.046L1177.95 265.695L1152.56 257.545L1138.21 302.193L1163.6 310.353L1165.64 304.002L1149.55 298.832L1153.75 285.768L1166.52 289.873L1168.56 283.529L1155.78 279.424L1159.82 266.878Z" fill="black"/>
</g>
</g>
</g>
<mask id="mask84_20_2634" style="mask-type:luminance" maskUnits="userSpaceOnUse" x="1185" y="286" width="25" height="21">
<path d="M1191.21 286.426L1209.33 296.127L1204.04 306.012L1185.92 296.311L1191.21 286.426Z" fill="white"/>
</mask>
<g mask="url(#mask84_20_2634)">
<mask id="mask85_20_2634" style="mask-type:luminance" maskUnits="userSpaceOnUse" x="-11" y="-126" width="1642" height="596">
<path d="M13.1433 -125.146L1630.36 394.442L1606.35 469.166L-10.8614 -50.4219L13.1433 -125.146Z" fill="white"/>
</mask>
<g mask="url(#mask85_20_2634)">
<mask id="mask86_20_2634" style="mask-type:luminance" maskUnits="userSpaceOnUse" x="-11" y="-126" width="1642" height="596">
<path d="M13.1433 -125.146L1630.36 394.442L1606.35 469.166L-10.8614 -50.4219L13.1433 -125.146Z" fill="white"/>
</mask>
<g mask="url(#mask86_20_2634)">
<path d="M1188.19 297.161L1205.09 302.593L1207.13 296.249L1190.23 290.817L1188.19 297.161Z" fill="black"/>
</g>
</g>
</g>
<mask id="mask87_20_2634" style="mask-type:luminance" maskUnits="userSpaceOnUse" x="1209" y="279" width="59" height="64">
<path d="M1233.21 279.237L1267.81 297.757L1244 342.239L1209.4 323.718L1233.21 279.237Z" fill="white"/>
</mask>
<g mask="url(#mask87_20_2634)">
<mask id="mask88_20_2634" style="mask-type:luminance" maskUnits="userSpaceOnUse" x="-11" y="-126" width="1642" height="596">
<path d="M13.1452 -125.145L1630.36 394.442L1606.36 469.166L-10.8595 -50.4214L13.1452 -125.145Z" fill="white"/>
</mask>
<g mask="url(#mask88_20_2634)">
<mask id="mask89_20_2634" style="mask-type:luminance" maskUnits="userSpaceOnUse" x="-11" y="-126" width="1642" height="596">
<path d="M13.1462 -125.145L1630.36 394.442L1606.36 469.166L-10.8585 -50.4214L13.1462 -125.145Z" fill="white"/>
</mask>
<g mask="url(#mask89_20_2634)">
<path d="M1218.44 327.967L1233.12 332.691C1242.42 335.673 1248.26 333.233 1250.53 326.148L1257.79 303.562C1260.09 296.405 1256.75 291.097 1247.44 288.104L1232.76 283.387L1218.44 327.967ZM1245.28 294.334C1248.24 295.285 1249.63 297.032 1248.61 300.21L1241.14 323.453C1240.12 326.632 1237.97 327.244 1235.02 326.293L1229.78 324.606L1240.02 292.724L1245.26 294.412L1245.28 294.334Z" fill="black"/>
</g>
</g>
</g>
<mask id="mask90_20_2634" style="mask-type:luminance" maskUnits="userSpaceOnUse" x="1245" y="290" width="56" height="62">
<path d="M1269.69 290.285L1300.99 307.041L1277.18 351.523L1245.88 334.767L1269.69 290.285Z" fill="white"/>
</mask>
<g mask="url(#mask90_20_2634)">
<mask id="mask91_20_2634" style="mask-type:luminance" maskUnits="userSpaceOnUse" x="-11" y="-126" width="1642" height="596">
<path d="M13.1433 -125.146L1630.36 394.442L1606.35 469.166L-10.8614 -50.4219L13.1433 -125.146Z" fill="white"/>
</mask>
<g mask="url(#mask91_20_2634)">
<mask id="mask92_20_2634" style="mask-type:luminance" maskUnits="userSpaceOnUse" x="-11" y="-126" width="1642" height="596">
<path d="M13.1423 -125.146L1630.36 394.442L1606.35 469.165L-10.8624 -50.4222L13.1423 -125.146Z" fill="white"/>
</mask>
<g mask="url(#mask92_20_2634)">
<path d="M1255.61 328.101C1253.3 335.264 1257.02 340.936 1266.09 343.85C1275.24 346.786 1281.49 344.318 1283.79 337.162L1291.24 313.984C1293.54 306.827 1289.83 301.156 1280.75 298.241C1271.59 295.295 1265.34 297.769 1263.04 304.926L1255.61 328.101ZM1272.51 307.4C1273.53 304.222 1275.78 303.563 1278.73 304.514C1281.69 305.458 1283.15 307.237 1282.11 310.486L1274.38 334.542C1273.36 337.72 1271.11 338.379 1268.16 337.428C1265.21 336.477 1263.74 334.706 1264.78 331.456L1272.51 307.4Z" fill="black"/>
</g>
</g>
</g>
<mask id="mask93_20_2634" style="mask-type:luminance" maskUnits="userSpaceOnUse" x="0" y="-376" width="1556" height="1128">
<path d="M220.629 -375.159L1555.09 339.202L1334.6 751.071L0.147301 36.7106L220.629 -375.159Z" fill="white"/>
</mask>
<g mask="url(#mask93_20_2634)">
<mask id="mask94_20_2634" style="mask-type:luminance" maskUnits="userSpaceOnUse" x="91" y="-418" width="1325" height="1186">
<path d="M143.426 -417.348L1415.3 708.566L1363.28 767.339L91.402 -358.584L143.426 -417.348Z" fill="white"/>
</mask>
<g mask="url(#mask94_20_2634)">
<mask id="mask95_20_2634" style="mask-type:luminance" maskUnits="userSpaceOnUse" x="91" y="-418" width="1325" height="1186">
<path d="M143.426 -417.348L1415.3 708.566L1363.28 767.339L91.402 -358.584L143.426 -417.348Z" fill="white"/>
</mask>
<g mask="url(#mask95_20_2634)">
<path d="M150.836 -410.789L1407.56 701.717L1355.51 760.517L98.7847 -351.99L150.836 -410.789Z" fill="#FDE508"/>
<path d="M150.836 -410.789L1407.56 701.717L1355.51 760.517L98.7847 -351.99L150.836 -410.789Z" fill="#FDE508"/>
</g>
</g>
</g>
<mask id="mask96_20_2634" style="mask-type:luminance" maskUnits="userSpaceOnUse" x="496" y="-60" width="64" height="69">
<path d="M521.988 -59.1053L559.88 -38.821L534.304 8.9558L496.412 -11.3285L521.988 -59.1053Z" fill="white"/>
</mask>
<g mask="url(#mask96_20_2634)">
<mask id="mask97_20_2634" style="mask-type:luminance" maskUnits="userSpaceOnUse" x="91" y="-418" width="1325" height="1186">
<path d="M143.428 -417.348L1415.3 708.566L1363.28 767.339L91.404 -358.584L143.428 -417.348Z" fill="white"/>
</mask>
<g mask="url(#mask97_20_2634)">
<mask id="mask98_20_2634" style="mask-type:luminance" maskUnits="userSpaceOnUse" x="91" y="-418" width="1325" height="1186">
<path d="M143.428 -417.348L1415.3 708.566L1363.28 767.339L91.404 -358.584L143.428 -417.348Z" fill="white"/>
</mask>
<g mask="url(#mask98_20_2634)">
<path d="M515.927 -3.83874L523.417 2.78709L554.502 -32.3285L548.003 -38.0842L529.401 -17.0683L540.459 -44.7638L531.284 -52.88L500.199 -17.7644L506.761 -11.958L529.265 -37.3849L515.927 -3.83874Z" fill="black"/>
</g>
</g>
</g>
<mask id="mask99_20_2634" style="mask-type:luminance" maskUnits="userSpaceOnUse" x="525" y="-32" width="58" height="63">
<path d="M549.646 -31.5818L582.596 -13.9433L558.784 30.5386L525.834 12.9001L549.646 -31.5818Z" fill="white"/>
</mask>
<g mask="url(#mask99_20_2634)">
<mask id="mask100_20_2634" style="mask-type:luminance" maskUnits="userSpaceOnUse" x="91" y="-418" width="1325" height="1186">
<path d="M143.427 -417.348L1415.3 708.566L1363.28 767.339L91.403 -358.584L143.427 -417.348Z" fill="white"/>
</mask>
<g mask="url(#mask100_20_2634)">
<mask id="mask101_20_2634" style="mask-type:luminance" maskUnits="userSpaceOnUse" x="91" y="-418" width="1325" height="1186">
<path d="M143.427 -417.348L1415.3 708.566L1363.28 767.339L91.403 -358.584L143.427 -417.348Z" fill="white"/>
</mask>
<g mask="url(#mask101_20_2634)">
<path d="M535.513 -1.5164C530.526 4.11844 531.643 10.8018 538.785 17.1175C545.985 23.4969 552.699 23.746 557.686 18.1111L573.817 -0.112817C578.8 -5.74123 577.677 -12.4281 570.538 -18.7502C563.341 -25.1197 556.627 -25.3688 551.644 -19.7404L535.513 -1.5164ZM559.316 -13.6712C561.531 -16.1698 563.854 -15.8699 566.175 -13.8164C568.495 -11.763 569.122 -9.54766 566.86 -6.99158L550.115 11.9305C547.903 14.4226 545.576 14.1292 543.26 12.0693C540.933 10.0124 540.302 7.8035 542.565 5.24743L559.316 -13.6712Z" fill="black"/>
</g>
</g>
</g>
<mask id="mask102_20_2634" style="mask-type:luminance" maskUnits="userSpaceOnUse" x="556" y="-9" width="56" height="63">
<path d="M581.599 -8.1189L611.253 7.75578L586.559 53.8851L556.905 38.0105L581.599 -8.1189Z" fill="white"/>
</mask>
<g mask="url(#mask102_20_2634)">
<mask id="mask103_20_2634" style="mask-type:luminance" maskUnits="userSpaceOnUse" x="91" y="-418" width="1325" height="1186">
<path d="M143.428 -417.348L1415.3 708.566L1363.28 767.339L91.404 -358.584L143.428 -417.348Z" fill="white"/>
</mask>
<g mask="url(#mask103_20_2634)">
<mask id="mask104_20_2634" style="mask-type:luminance" maskUnits="userSpaceOnUse" x="91" y="-418" width="1325" height="1186">
<path d="M143.428 -417.348L1415.3 708.566L1363.28 767.339L91.404 -358.584L143.428 -417.348Z" fill="white"/>
</mask>
<g mask="url(#mask104_20_2634)">
<path d="M579.574 -1.2292L587.229 5.55146L560.619 35.6189L567.933 42.0928L594.544 12.0254L602.206 18.8095L606.626 13.8153L583.995 -6.22342L579.574 -1.2292Z" fill="black"/>
</g>
</g>
</g>
<mask id="mask105_20_2634" style="mask-type:luminance" maskUnits="userSpaceOnUse" x="586" y="21" width="57" height="64">
<path d="M610.021 21.9341L642.971 39.5726L619.159 84.0545L586.209 66.416L610.021 21.9341Z" fill="white"/>
</mask>
<g mask="url(#mask105_20_2634)">
<mask id="mask106_20_2634" style="mask-type:luminance" maskUnits="userSpaceOnUse" x="91" y="-418" width="1325" height="1186">
<path d="M143.428 -417.347L1415.3 708.566L1363.28 767.34L91.404 -358.583L143.428 -417.347Z" fill="white"/>
</mask>
<g mask="url(#mask106_20_2634)">
<mask id="mask107_20_2634" style="mask-type:luminance" maskUnits="userSpaceOnUse" x="91" y="-418" width="1325" height="1186">
<path d="M143.428 -417.347L1415.3 708.566L1363.28 767.34L91.404 -358.583L143.428 -417.347Z" fill="white"/>
</mask>
<g mask="url(#mask107_20_2634)">
<path d="M614.957 60.4272L610.537 65.4214C608.325 67.9136 606.055 67.5597 603.735 65.5062C601.408 63.4493 600.781 61.234 602.993 58.7418L619.741 39.8133C621.953 37.3212 624.276 37.621 626.596 39.6745C628.923 41.7314 629.55 43.9467 627.291 46.4964L623.947 50.2698L630.856 56.3863L633.891 52.9602C638.868 47.3284 637.981 40.8506 630.788 34.4747C623.591 28.1052 617.043 28.0109 612.059 33.6394L595.877 51.9272C590.894 57.5556 591.781 64.0334 598.978 70.4029C606.177 76.7822 612.719 76.873 617.703 71.2446L621.813 66.5977L614.903 60.4812L614.957 60.4272Z" fill="black"/>
</g>
</g>
</g>
<mask id="mask108_20_2634" style="mask-type:luminance" maskUnits="userSpaceOnUse" x="609" y="41" width="61" height="68">
<path d="M635.382 41.8693L669.979 60.3897L644.403 108.167L609.806 89.6461L635.382 41.8693Z" fill="white"/>
</mask>
<g mask="url(#mask108_20_2634)">
<mask id="mask109_20_2634" style="mask-type:luminance" maskUnits="userSpaceOnUse" x="91" y="-418" width="1325" height="1186">
<path d="M143.426 -417.347L1415.3 708.566L1363.28 767.34L91.402 -358.583L143.426 -417.347Z" fill="white"/>
</mask>
<g mask="url(#mask109_20_2634)">
<mask id="mask110_20_2634" style="mask-type:luminance" maskUnits="userSpaceOnUse" x="91" y="-418" width="1325" height="1186">
<path d="M143.426 -417.347L1415.3 708.566L1363.28 767.34L91.402 -358.583L143.426 -417.347Z" fill="white"/>
</mask>
<g mask="url(#mask110_20_2634)">
<path d="M637.417 103.707C637.788 101.761 638.864 100.433 640.351 98.753L645.129 93.354C648.369 89.6984 649.515 85.9487 646.885 81.5516C651.167 83.2646 654.789 82.3302 658.023 78.6713L660.44 75.9497C665.218 70.5507 664.331 65.0004 656.723 58.27L645.696 48.5085L614.611 83.6242L621.925 90.0981L634.563 75.8166L637.119 78.0791C640.427 81.0092 640.802 83.5113 637.919 86.7621L633.036 92.279C630.521 95.1219 630.299 95.955 629.874 97.1352L637.36 103.767L637.417 103.707ZM652.184 63.052C654.798 65.3618 654.92 67.4389 652.714 69.9345L649.632 73.4181C647.164 76.2036 644.659 75.6407 641.927 73.2263L639.085 70.7109L648.64 59.9128L652.184 63.052Z" fill="black"/>
</g>
</g>
</g>
<mask id="mask111_20_2634" style="mask-type:luminance" maskUnits="userSpaceOnUse" x="640" y="69" width="55" height="60">
<path d="M663.042 69.3927L694.344 86.1493L671.414 128.984L640.112 112.227L663.042 69.3927Z" fill="white"/>
</mask>
<g mask="url(#mask111_20_2634)">
<mask id="mask112_20_2634" style="mask-type:luminance" maskUnits="userSpaceOnUse" x="91" y="-418" width="1325" height="1186">
<path d="M143.426 -417.347L1415.3 708.566L1363.28 767.34L91.402 -358.583L143.426 -417.347Z" fill="white"/>
</mask>
<g mask="url(#mask112_20_2634)">
<mask id="mask113_20_2634" style="mask-type:luminance" maskUnits="userSpaceOnUse" x="91" y="-418" width="1325" height="1186">
<path d="M143.426 -417.347L1415.3 708.566L1363.28 767.34L91.402 -358.583L143.426 -417.347Z" fill="white"/>
</mask>
<g mask="url(#mask113_20_2634)">
<path d="M648.289 98.3243C643.306 103.953 644.429 110.64 651.568 116.962C658.765 123.331 665.479 123.58 670.462 117.952L686.603 99.7249C691.58 94.093 690.463 87.4096 683.324 81.0875C676.128 74.7181 669.407 74.4655 664.424 80.0939L648.289 98.3243ZM672.102 86.1665C674.307 83.6709 676.634 83.9644 678.951 86.0243C681.278 88.0812 681.908 90.2901 679.646 92.8461L662.895 111.765C660.686 114.267 658.363 113.967 656.036 111.91C653.716 109.857 653.088 107.641 655.347 105.092L672.102 86.1665Z" fill="black"/>
</g>
</g>
</g>
<mask id="mask114_20_2634" style="mask-type:luminance" maskUnits="userSpaceOnUse" x="666" y="91" width="55" height="61">
<path d="M689.168 91.8571L720.47 108.614L697.54 151.448L666.238 134.691L689.168 91.8571Z" fill="white"/>
</mask>
<g mask="url(#mask114_20_2634)">
<mask id="mask115_20_2634" style="mask-type:luminance" maskUnits="userSpaceOnUse" x="91" y="-418" width="1325" height="1186">
<path d="M143.428 -417.348L1415.3 708.566L1363.28 767.339L91.404 -358.584L143.428 -417.348Z" fill="white"/>
</mask>
<g mask="url(#mask115_20_2634)">
<mask id="mask116_20_2634" style="mask-type:luminance" maskUnits="userSpaceOnUse" x="91" y="-418" width="1325" height="1186">
<path d="M143.428 -417.348L1415.3 708.566L1363.28 767.339L91.404 -358.584L143.428 -417.348Z" fill="white"/>
</mask>
<g mask="url(#mask116_20_2634)">
<path d="M690.482 103.059C681.594 113.105 694.689 127.078 688.319 134.275C686.108 136.767 683.838 136.413 681.511 134.356C679.191 132.303 678.564 130.087 680.769 127.592L682.981 125.099L676.071 118.983L674.176 121.131C669.192 126.76 670.076 133.244 677.273 139.613C684.476 145.986 691.014 146.083 695.998 140.455C704.886 130.409 691.791 116.436 698.161 109.239C700.37 106.737 702.582 106.936 704.902 108.99C707.222 111.043 707.738 113.157 705.475 115.713L704.194 117.164L711.097 123.277L712.075 122.177C717.062 116.542 716.232 110.112 709.089 103.796C701.95 97.4742 695.466 97.4306 690.482 103.059Z" fill="black"/>
</g>
</g>
</g>
<mask id="mask117_20_2634" style="mask-type:luminance" maskUnits="userSpaceOnUse" x="689" y="113" width="56" height="62">
<path d="M713.647 113.44L744.95 130.196L721.138 174.678L689.835 157.922L713.647 113.44Z" fill="white"/>
</mask>
<g mask="url(#mask117_20_2634)">
<mask id="mask118_20_2634" style="mask-type:luminance" maskUnits="userSpaceOnUse" x="91" y="-418" width="1325" height="1186">
<path d="M143.428 -417.347L1415.3 708.566L1363.28 767.34L91.404 -358.583L143.428 -417.347Z" fill="white"/>
</mask>
<g mask="url(#mask118_20_2634)">
<mask id="mask119_20_2634" style="mask-type:luminance" maskUnits="userSpaceOnUse" x="91" y="-418" width="1325" height="1186">
<path d="M143.428 -417.347L1415.3 708.566L1363.28 767.34L91.404 -358.583L143.428 -417.347Z" fill="white"/>
</mask>
<g mask="url(#mask119_20_2634)">
<path d="M715.387 125.101C706.492 135.144 719.593 149.12 713.217 156.313C711.009 158.815 708.733 158.458 706.412 156.404C704.096 154.345 703.465 152.136 705.674 149.634L707.885 147.141L700.976 141.025L699.071 143.176C694.087 148.805 694.981 155.286 702.177 161.655C709.37 168.031 715.919 168.125 720.896 162.494C729.791 152.451 716.69 138.475 723.065 131.282C725.271 128.786 727.48 128.975 729.803 131.038C732.123 133.092 732.642 135.199 730.38 137.755L729.092 139.202L736.002 145.319L736.973 144.216C741.957 138.587 741.127 132.157 733.988 125.835C726.855 119.516 720.37 119.473 715.387 125.101Z" fill="black"/>
</g>
</g>
</g>
<mask id="mask120_20_2634" style="mask-type:luminance" maskUnits="userSpaceOnUse" x="760" y="174" width="56" height="63">
<path d="M784.671 174.776L815.973 191.533L792.161 236.015L760.859 219.258L784.671 174.776Z" fill="white"/>
</mask>
<g mask="url(#mask120_20_2634)">
<mask id="mask121_20_2634" style="mask-type:luminance" maskUnits="userSpaceOnUse" x="91" y="-418" width="1325" height="1186">
<path d="M143.425 -417.347L1415.3 708.566L1363.28 767.34L91.401 -358.583L143.425 -417.347Z" fill="white"/>
</mask>
<g mask="url(#mask121_20_2634)">
<mask id="mask122_20_2634" style="mask-type:luminance" maskUnits="userSpaceOnUse" x="91" y="-418" width="1325" height="1186">
<path d="M143.425 -417.347L1415.3 708.566L1363.28 767.34L91.401 -358.583L143.425 -417.347Z" fill="white"/>
</mask>
<g mask="url(#mask122_20_2634)">
<path d="M788.392 213.961L783.971 218.955C781.766 221.451 779.49 221.093 777.17 219.04C774.843 216.983 774.216 214.768 776.427 212.276L793.182 193.351C795.387 190.855 797.711 191.155 800.031 193.208C802.358 195.265 802.985 197.481 800.726 200.03L797.381 203.804L804.291 209.92L807.325 206.494C812.309 200.866 811.415 194.384 804.222 188.008C797.026 181.639 790.484 181.548 785.5 187.177L769.312 205.461C764.328 211.089 765.216 217.567 772.412 223.937C779.612 230.316 786.154 230.407 791.137 224.778L795.248 220.132L788.341 214.025L788.392 213.961Z" fill="black"/>
</g>
</g>
</g>
<mask id="mask123_20_2634" style="mask-type:luminance" maskUnits="userSpaceOnUse" x="783" y="196" width="61" height="67">
<path d="M809.15 196.359L843.747 214.879L818.172 262.656L783.575 244.136L809.15 196.359Z" fill="white"/>
</mask>
<g mask="url(#mask123_20_2634)">
<mask id="mask124_20_2634" style="mask-type:luminance" maskUnits="userSpaceOnUse" x="91" y="-418" width="1325" height="1186">
<path d="M143.426 -417.347L1415.3 708.566L1363.28 767.34L91.402 -358.583L143.426 -417.347Z" fill="white"/>
</mask>
<g mask="url(#mask124_20_2634)">
<mask id="mask125_20_2634" style="mask-type:luminance" maskUnits="userSpaceOnUse" x="91" y="-418" width="1325" height="1186">
<path d="M143.425 -417.347L1415.3 708.566L1363.28 767.34L91.401 -358.583L143.425 -417.347Z" fill="white"/>
</mask>
<g mask="url(#mask125_20_2634)">
<path d="M810.906 257.294C811.283 255.352 812.359 254.023 813.849 252.337L818.627 246.938C821.861 243.279 823.007 239.529 820.377 235.132C824.656 236.852 828.224 235.864 831.454 232.211L833.875 229.483C838.653 224.084 837.765 218.534 830.158 211.803L819.13 202.042L788.045 237.157L795.36 243.631L807.998 229.35L810.554 231.612C813.862 234.542 814.236 237.045 811.353 240.295L806.471 245.812C803.956 248.655 803.73 249.495 803.315 250.672L810.859 257.352L810.906 257.294ZM825.676 216.633C828.287 218.949 828.415 221.029 826.203 223.522L823.121 227.005C820.659 229.794 818.154 229.231 815.422 226.817L812.58 224.301L822.135 213.503L825.676 216.633Z" fill="black"/>
</g>
</g>
</g>
<mask id="mask126_20_2634" style="mask-type:luminance" maskUnits="userSpaceOnUse" x="813" y="219" width="43" height="55">
<path d="M836.926 219.706L855.048 229.407L831.236 273.889L813.114 264.187L836.926 219.706Z" fill="white"/>
</mask>
<g mask="url(#mask126_20_2634)">
<mask id="mask127_20_2634" style="mask-type:luminance" maskUnits="userSpaceOnUse" x="91" y="-418" width="1325" height="1186">
<path d="M143.428 -417.347L1415.3 708.566L1363.28 767.34L91.404 -358.583L143.428 -417.347Z" fill="white"/>
</mask>
<g mask="url(#mask127_20_2634)">
<mask id="mask128_20_2634" style="mask-type:luminance" maskUnits="userSpaceOnUse" x="91" y="-418" width="1325" height="1186">
<path d="M143.428 -417.347L1415.3 708.566L1363.28 767.34L91.404 -358.583L143.428 -417.347Z" fill="white"/>
</mask>
<g mask="url(#mask128_20_2634)">
<path d="M814.915 260.838L822.23 267.312L853.315 232.196L846 225.722L814.915 260.838Z" fill="black"/>
</g>
</g>
</g>
<mask id="mask129_20_2634" style="mask-type:luminance" maskUnits="userSpaceOnUse" x="821" y="230" width="74" height="76">
<path d="M848.341 230.056L894.47 254.75L867.13 305.822L821.001 281.128L848.341 230.056Z" fill="white"/>
</mask>
<g mask="url(#mask129_20_2634)">
<mask id="mask130_20_2634" style="mask-type:luminance" maskUnits="userSpaceOnUse" x="91" y="-418" width="1325" height="1186">
<path d="M143.425 -417.348L1415.3 708.566L1363.28 767.339L91.401 -358.584L143.425 -417.348Z" fill="white"/>
</mask>
<g mask="url(#mask130_20_2634)">
<mask id="mask131_20_2634" style="mask-type:luminance" maskUnits="userSpaceOnUse" x="91" y="-418" width="1325" height="1186">
<path d="M143.425 -417.348L1415.3 708.566L1363.28 767.339L91.401 -358.584L143.425 -417.348Z" fill="white"/>
</mask>
<g mask="url(#mask131_20_2634)">
<path d="M868.758 245.862L858.601 236.873L827.509 271.985L833.896 277.64L855.887 252.799L839.349 282.471L846.259 288.588L873.612 267.868L851.31 293.056L858.214 299.169L889.305 264.057L879.141 255.064L852.109 275.541L868.758 245.862Z" fill="black"/>
</g>
</g>
</g>
<mask id="mask132_20_2634" style="mask-type:luminance" maskUnits="userSpaceOnUse" x="858" y="261" width="61" height="68">
<path d="M884.237 261.989L918.834 280.509L893.258 328.286L858.661 309.766L884.237 261.989Z" fill="white"/>
</mask>
<g mask="url(#mask132_20_2634)">
<mask id="mask133_20_2634" style="mask-type:luminance" maskUnits="userSpaceOnUse" x="91" y="-418" width="1325" height="1186">
<path d="M143.426 -417.348L1415.3 708.566L1363.28 767.339L91.402 -358.584L143.426 -417.348Z" fill="white"/>
</mask>
<g mask="url(#mask133_20_2634)">
<mask id="mask134_20_2634" style="mask-type:luminance" maskUnits="userSpaceOnUse" x="91" y="-418" width="1325" height="1186">
<path d="M143.426 -417.348L1415.3 708.566L1363.28 767.339L91.402 -358.584L143.426 -417.348Z" fill="white"/>
</mask>
<g mask="url(#mask134_20_2634)">
<path d="M897.538 280.246L910.194 291.45L914.615 286.456L894.641 268.784L863.556 303.9L883.526 321.578L887.94 316.581L875.291 305.379L884.385 295.104L894.427 303.999L898.848 299.005L888.802 290.116L897.538 280.246Z" fill="black"/>
</g>
</g>
</g>
<mask id="mask135_20_2634" style="mask-type:luminance" maskUnits="userSpaceOnUse" x="896" y="295" width="55" height="61">
<path d="M919.251 295.569L950.553 312.326L927.623 355.16L896.321 338.404L919.251 295.569Z" fill="white"/>
</mask>
<g mask="url(#mask135_20_2634)">
<mask id="mask136_20_2634" style="mask-type:luminance" maskUnits="userSpaceOnUse" x="91" y="-418" width="1325" height="1186">
<path d="M143.428 -417.347L1415.3 708.566L1363.28 767.34L91.404 -358.583L143.428 -417.347Z" fill="white"/>
</mask>
<g mask="url(#mask136_20_2634)">
<mask id="mask137_20_2634" style="mask-type:luminance" maskUnits="userSpaceOnUse" x="91" y="-418" width="1325" height="1186">
<path d="M143.428 -417.347L1415.3 708.566L1363.28 767.34L91.404 -358.583L143.428 -417.347Z" fill="white"/>
</mask>
<g mask="url(#mask137_20_2634)">
<path d="M921.031 307.154C912.142 317.199 925.244 331.176 918.868 338.369C916.663 340.865 914.386 340.507 912.066 338.454C909.746 336.4 909.119 334.185 911.324 331.69L913.536 329.197L906.626 323.081L904.724 325.226C899.741 330.854 900.631 337.342 907.828 343.711C915.024 350.081 921.563 350.178 926.546 344.55C935.441 334.507 922.34 320.531 928.709 313.334C930.925 310.835 933.13 311.031 935.457 313.088C937.777 315.141 938.286 317.252 936.024 319.808L934.742 321.258L941.652 327.375L942.623 326.272C947.61 320.637 946.78 314.206 939.638 307.891C932.499 301.569 926.014 301.525 921.031 307.154Z" fill="black"/>
</g>
</g>
</g>
<mask id="mask138_20_2634" style="mask-type:luminance" maskUnits="userSpaceOnUse" x="921" y="318" width="56" height="62">
<path d="M945.378 318.034L976.68 334.791L952.868 379.272L921.566 362.516L945.378 318.034Z" fill="white"/>
</mask>
<g mask="url(#mask138_20_2634)">
<mask id="mask139_20_2634" style="mask-type:luminance" maskUnits="userSpaceOnUse" x="91" y="-418" width="1325" height="1186">
<path d="M143.428 -417.347L1415.3 708.566L1363.28 767.34L91.404 -358.583L143.428 -417.347Z" fill="white"/>
</mask>
<g mask="url(#mask139_20_2634)">
<mask id="mask140_20_2634" style="mask-type:luminance" maskUnits="userSpaceOnUse" x="91" y="-418" width="1325" height="1186">
<path d="M143.428 -417.347L1415.3 708.566L1363.28 767.34L91.404 -358.583L143.428 -417.347Z" fill="white"/>
</mask>
<g mask="url(#mask140_20_2634)">
<path d="M949.117 356.243L944.696 361.237C942.491 363.732 940.215 363.375 937.894 361.322C935.574 359.268 934.947 357.053 937.152 354.557L953.907 335.632C956.112 333.137 958.436 333.436 960.762 335.493C963.082 337.547 963.71 339.762 961.451 342.312L958.112 346.089L965.016 352.202L968.05 348.776C973.034 343.147 972.146 336.669 964.947 330.29C957.75 323.921 951.212 323.823 946.225 329.458L930.037 347.743C925.053 353.371 925.947 359.852 933.143 366.222C940.34 372.591 946.879 372.688 951.862 367.06L955.972 362.413L949.069 356.3L949.117 356.243Z" fill="black"/>
</g>
</g>
</g>
<mask id="mask141_20_2634" style="mask-type:luminance" maskUnits="userSpaceOnUse" x="945" y="337" width="59" height="67">
<path d="M970.739 337.969L1003.69 355.608L978.113 403.384L945.163 385.746L970.739 337.969Z" fill="white"/>
</mask>
<g mask="url(#mask141_20_2634)">
<mask id="mask142_20_2634" style="mask-type:luminance" maskUnits="userSpaceOnUse" x="91" y="-418" width="1325" height="1186">
<path d="M143.428 -417.348L1415.3 708.566L1363.28 767.339L91.404 -358.584L143.428 -417.348Z" fill="white"/>
</mask>
<g mask="url(#mask142_20_2634)">
<mask id="mask143_20_2634" style="mask-type:luminance" maskUnits="userSpaceOnUse" x="91" y="-418" width="1325" height="1186">
<path d="M143.428 -417.348L1415.3 708.566L1363.28 767.339L91.404 -358.584L143.428 -417.348Z" fill="white"/>
</mask>
<g mask="url(#mask143_20_2634)">
<path d="M982.865 355.778L995.521 366.983L999.938 361.995L979.967 344.317L948.882 379.432L968.853 397.111L973.273 392.117L960.614 380.918L969.708 370.643L979.754 379.531L984.174 374.537L974.128 365.649L982.865 355.778Z" fill="black"/>
</g>
</g>
</g>
<mask id="mask144_20_2634" style="mask-type:luminance" maskUnits="userSpaceOnUse" x="969" y="359" width="65" height="69">
<path d="M995.218 359.552L1033.11 379.836L1007.53 427.613L969.642 407.329L995.218 359.552Z" fill="white"/>
</mask>
<g mask="url(#mask144_20_2634)">
<mask id="mask145_20_2634" style="mask-type:luminance" maskUnits="userSpaceOnUse" x="91" y="-418" width="1325" height="1186">
<path d="M143.427 -417.347L1415.3 708.566L1363.28 767.34L91.403 -358.583L143.427 -417.347Z" fill="white"/>
</mask>
<g mask="url(#mask145_20_2634)">
<mask id="mask146_20_2634" style="mask-type:luminance" maskUnits="userSpaceOnUse" x="91" y="-418" width="1325" height="1186">
<path d="M143.427 -417.347L1415.3 708.566L1363.28 767.34L91.403 -358.583L143.427 -417.347Z" fill="white"/>
</mask>
<g mask="url(#mask146_20_2634)">
<path d="M988.991 414.938L996.477 421.57L1027.57 386.448L1021.06 380.699L1002.46 401.708L1013.58 374.067L1004.4 365.951L973.317 401.066L979.879 406.873L1002.38 381.446L988.991 414.938Z" fill="black"/>
</g>
</g>
</g>
<mask id="mask147_20_2634" style="mask-type:luminance" maskUnits="userSpaceOnUse" x="996" y="384" width="61" height="67">
<path d="M1022.11 384.546L1056.71 403.066L1031.13 450.843L996.533 432.322L1022.11 384.546Z" fill="white"/>
</mask>
<g mask="url(#mask147_20_2634)">
<mask id="mask148_20_2634" style="mask-type:luminance" maskUnits="userSpaceOnUse" x="91" y="-418" width="1325" height="1186">
<path d="M143.424 -417.348L1415.3 708.566L1363.27 767.339L91.4001 -358.584L143.424 -417.348Z" fill="white"/>
</mask>
<g mask="url(#mask148_20_2634)">
<mask id="mask149_20_2634" style="mask-type:luminance" maskUnits="userSpaceOnUse" x="91" y="-418" width="1325" height="1186">
<path d="M143.424 -417.348L1415.3 708.566L1363.27 767.339L91.4001 -358.584L143.424 -417.348Z" fill="white"/>
</mask>
<g mask="url(#mask149_20_2634)">
<path d="M1035.74 402.59L1048.39 413.794L1052.82 408.8L1032.84 391.128L1001.76 426.244L1021.73 443.922L1026.15 438.928L1013.49 427.723L1022.59 417.448L1032.63 426.343L1037.05 421.349L1027 412.46L1035.74 402.59Z" fill="black"/>
</g>
</g>
</g>
<mask id="mask150_20_2634" style="mask-type:luminance" maskUnits="userSpaceOnUse" x="1046" y="434" width="25" height="22">
<path d="M1052.48 434.717L1070.6 444.418L1064.43 455.951L1046.31 446.25L1052.48 434.717Z" fill="white"/>
</mask>
<g mask="url(#mask150_20_2634)">
<mask id="mask151_20_2634" style="mask-type:luminance" maskUnits="userSpaceOnUse" x="91" y="-418" width="1325" height="1186">
<path d="M143.425 -417.348L1415.3 708.566L1363.28 767.339L91.401 -358.584L143.425 -417.348Z" fill="white"/>
</mask>
<g mask="url(#mask151_20_2634)">
<mask id="mask152_20_2634" style="mask-type:luminance" maskUnits="userSpaceOnUse" x="91" y="-418" width="1325" height="1186">
<path d="M143.424 -417.348L1415.3 708.565L1363.27 767.339L91.4001 -358.584L143.424 -417.348Z" fill="white"/>
</mask>
<g mask="url(#mask152_20_2634)">
<path d="M1049.54 441.732L1062.83 453.499L1067.25 448.505L1053.96 436.738L1049.54 441.732Z" fill="black"/>
</g>
</g>
</g>
<mask id="mask153_20_2634" style="mask-type:luminance" maskUnits="userSpaceOnUse" x="1061" y="439" width="62" height="67">
<path d="M1085.78 439.825L1122.02 459.228L1097.33 505.357L1061.08 485.955L1085.78 439.825Z" fill="white"/>
</mask>
<g mask="url(#mask153_20_2634)">
<mask id="mask154_20_2634" style="mask-type:luminance" maskUnits="userSpaceOnUse" x="91" y="-418" width="1325" height="1186">
<path d="M143.427 -417.347L1415.3 708.566L1363.28 767.34L91.403 -358.583L143.427 -417.347Z" fill="white"/>
</mask>
<g mask="url(#mask154_20_2634)">
<mask id="mask155_20_2634" style="mask-type:luminance" maskUnits="userSpaceOnUse" x="91" y="-418" width="1325" height="1186">
<path d="M143.427 -417.347L1415.3 708.566L1363.28 767.34L91.403 -358.583L143.427 -417.347Z" fill="white"/>
</mask>
<g mask="url(#mask155_20_2634)">
<path d="M1064.86 482.095L1076.4 492.325C1083.72 498.799 1090.04 498.907 1094.97 493.332L1110.7 475.571C1115.68 469.942 1114.76 463.741 1107.44 457.267L1095.89 447.044L1064.86 482.095ZM1102.96 462.096C1105.28 464.15 1105.85 466.311 1103.64 468.81L1087.45 487.094C1085.25 489.59 1083.03 489.283 1080.71 487.226L1076.59 483.581L1098.79 458.505L1102.91 462.15L1102.96 462.096Z" fill="black"/>
</g>
</g>
</g>
<mask id="mask156_20_2634" style="mask-type:luminance" maskUnits="userSpaceOnUse" x="1089" y="467" width="58" height="63">
<path d="M1113.44 467.349L1146.39 484.987L1122.58 529.469L1089.63 511.831L1113.44 467.349Z" fill="white"/>
</mask>
<g mask="url(#mask156_20_2634)">
<mask id="mask157_20_2634" style="mask-type:luminance" maskUnits="userSpaceOnUse" x="91" y="-418" width="1325" height="1186">
<path d="M143.428 -417.348L1415.3 708.566L1363.28 767.339L91.404 -358.584L143.428 -417.348Z" fill="white"/>
</mask>
<g mask="url(#mask157_20_2634)">
<mask id="mask158_20_2634" style="mask-type:luminance" maskUnits="userSpaceOnUse" x="91" y="-418" width="1325" height="1186">
<path d="M143.428 -417.348L1415.3 708.566L1363.28 767.339L91.404 -358.584L143.428 -417.348Z" fill="white"/>
</mask>
<g mask="url(#mask158_20_2634)">
<path d="M1098.84 497.163C1093.85 502.797 1094.97 509.481 1102.11 515.796C1109.31 522.176 1116.02 522.425 1121.01 516.79L1137.14 498.566C1142.12 492.938 1141 486.251 1133.86 479.929C1126.67 473.559 1119.95 473.31 1114.97 478.939L1098.84 497.163ZM1122.64 485.008C1124.86 482.509 1127.18 482.809 1129.5 484.863C1131.82 486.916 1132.45 489.131 1130.18 491.687L1113.44 510.609C1111.23 513.102 1108.9 512.808 1106.58 510.755C1104.26 508.691 1103.63 506.482 1105.89 503.926L1122.64 485.008Z" fill="black"/>
</g>
</g>
</g>
<mask id="mask159_20_2634" style="mask-type:luminance" maskUnits="userSpaceOnUse" x="1124" y="497" width="65" height="69">
<path d="M1150.21 497.634L1188.11 517.919L1162.53 565.695L1124.64 545.411L1150.21 497.634Z" fill="white"/>
</mask>
<g mask="url(#mask159_20_2634)">
<mask id="mask160_20_2634" style="mask-type:luminance" maskUnits="userSpaceOnUse" x="91" y="-418" width="1325" height="1186">
<path d="M143.425 -417.348L1415.3 708.566L1363.28 767.339L91.401 -358.584L143.425 -417.348Z" fill="white"/>
</mask>
<g mask="url(#mask160_20_2634)">
<mask id="mask161_20_2634" style="mask-type:luminance" maskUnits="userSpaceOnUse" x="91" y="-418" width="1325" height="1186">
<path d="M143.425 -417.348L1415.3 708.566L1363.28 767.339L91.401 -358.584L143.425 -417.348Z" fill="white"/>
</mask>
<g mask="url(#mask161_20_2634)">
<path d="M1144.26 552.388L1151.75 559.02L1182.83 523.904L1176.33 518.149L1157.73 539.158L1168.85 511.517L1159.67 503.4L1128.59 538.516L1135.15 544.322L1157.65 518.902L1144.26 552.388Z" fill="black"/>
</g>
</g>
</g>
<mask id="mask162_20_2634" style="mask-type:luminance" maskUnits="userSpaceOnUse" x="1154" y="525" width="57" height="61">
<path d="M1177.87 525.158L1210.82 542.796L1187.89 585.631L1154.94 567.992L1177.87 525.158Z" fill="white"/>
</mask>
<g mask="url(#mask162_20_2634)">
<mask id="mask163_20_2634" style="mask-type:luminance" maskUnits="userSpaceOnUse" x="91" y="-418" width="1325" height="1186">
<path d="M143.425 -417.348L1415.3 708.566L1363.28 767.339L91.401 -358.584L143.425 -417.348Z" fill="white"/>
</mask>
<g mask="url(#mask163_20_2634)">
<mask id="mask164_20_2634" style="mask-type:luminance" maskUnits="userSpaceOnUse" x="91" y="-418" width="1325" height="1186">
<path d="M143.424 -417.348L1415.3 708.565L1363.27 767.339L91.4001 -358.584L143.424 -417.348Z" fill="white"/>
</mask>
<g mask="url(#mask164_20_2634)">
<path d="M1163.9 554.764C1158.91 560.398 1160.03 567.082 1167.17 573.398C1174.37 579.777 1181.09 580.026 1186.07 574.391L1202.21 556.167C1207.19 550.539 1206.07 543.852 1198.93 537.53C1191.73 531.16 1185.02 530.911 1180.03 536.54L1163.9 554.764ZM1187.7 542.609C1189.92 540.11 1192.24 540.41 1194.56 542.464C1196.88 544.517 1197.51 546.732 1195.25 549.288L1178.5 568.21C1176.29 570.703 1173.96 570.409 1171.64 568.356C1169.32 566.292 1168.69 564.084 1170.95 561.527L1187.7 542.609Z" fill="black"/>
</g>
</g>
</g>
<mask id="mask165_20_2634" style="mask-type:luminance" maskUnits="userSpaceOnUse" x="1186" y="548" width="54" height="61">
<path d="M1209.83 548.621L1239.48 564.495L1215.67 608.977L1186.01 593.102L1209.83 548.621Z" fill="white"/>
</mask>
<g mask="url(#mask165_20_2634)">
<mask id="mask166_20_2634" style="mask-type:luminance" maskUnits="userSpaceOnUse" x="91" y="-418" width="1325" height="1186">
<path d="M143.428 -417.348L1415.3 708.566L1363.28 767.339L91.404 -358.584L143.428 -417.348Z" fill="white"/>
</mask>
<g mask="url(#mask166_20_2634)">
<mask id="mask167_20_2634" style="mask-type:luminance" maskUnits="userSpaceOnUse" x="91" y="-418" width="1325" height="1186">
<path d="M143.428 -417.348L1415.3 708.566L1363.28 767.339L91.404 -358.584L143.428 -417.348Z" fill="white"/>
</mask>
<g mask="url(#mask167_20_2634)">
<path d="M1207.9 554.994L1215.57 561.778L1188.95 591.848L1196.26 598.322L1222.88 568.252L1230.54 575.036L1234.96 570.048L1212.32 550.006L1207.9 554.994Z" fill="black"/>
</g>
</g>
</g>
<mask id="mask168_20_2634" style="mask-type:luminance" maskUnits="userSpaceOnUse" x="1215" y="578" width="57" height="62">
<path d="M1238.25 578.673L1271.2 596.312L1248.27 639.146L1215.32 621.508L1238.25 578.673Z" fill="white"/>
</mask>
<g mask="url(#mask168_20_2634)">
<mask id="mask169_20_2634" style="mask-type:luminance" maskUnits="userSpaceOnUse" x="91" y="-418" width="1325" height="1186">
<path d="M143.426 -417.348L1415.3 708.566L1363.28 767.339L91.402 -358.584L143.426 -417.348Z" fill="white"/>
</mask>
<g mask="url(#mask169_20_2634)">
<mask id="mask170_20_2634" style="mask-type:luminance" maskUnits="userSpaceOnUse" x="91" y="-418" width="1325" height="1186">
<path d="M143.425 -417.348L1415.3 708.565L1363.28 767.339L91.401 -358.584L143.425 -417.348Z" fill="white"/>
</mask>
<g mask="url(#mask170_20_2634)">
<path d="M1243.29 616.66L1238.87 621.647C1236.66 624.146 1234.39 623.792 1232.06 621.729C1229.74 619.675 1229.11 617.466 1231.32 614.964L1248.07 596.046C1250.28 593.554 1252.61 593.847 1254.93 595.901C1257.25 597.96 1257.88 600.169 1255.62 602.725L1252.28 606.496L1259.18 612.609L1262.22 609.189C1267.2 603.561 1266.31 597.077 1259.12 590.707C1251.92 584.334 1245.38 584.237 1240.39 589.865L1224.21 608.15C1219.22 613.778 1220.11 620.266 1227.31 626.635C1234.51 633.005 1241.04 633.102 1246.03 627.474L1250.14 622.83L1243.23 616.714L1243.29 616.66Z" fill="black"/>
</g>
</g>
</g>
<mask id="mask171_20_2634" style="mask-type:luminance" maskUnits="userSpaceOnUse" x="1238" y="598" width="61" height="67">
<path d="M1263.61 598.609L1298.21 617.129L1272.63 664.906L1238.03 646.385L1263.61 598.609Z" fill="white"/>
</mask>
<g mask="url(#mask171_20_2634)">
<mask id="mask172_20_2634" style="mask-type:luminance" maskUnits="userSpaceOnUse" x="91" y="-418" width="1325" height="1186">
<path d="M143.425 -417.348L1415.3 708.566L1363.28 767.339L91.401 -358.584L143.425 -417.348Z" fill="white"/>
</mask>
<g mask="url(#mask172_20_2634)">
<mask id="mask173_20_2634" style="mask-type:luminance" maskUnits="userSpaceOnUse" x="91" y="-418" width="1325" height="1186">
<path d="M143.425 -417.348L1415.3 708.566L1363.28 767.339L91.401 -358.584L143.425 -417.348Z" fill="white"/>
</mask>
<g mask="url(#mask173_20_2634)">
<path d="M1265.81 659.987C1266.18 658.041 1267.25 656.712 1268.74 655.033L1273.52 649.634C1276.76 645.978 1277.9 642.229 1275.27 637.831C1279.55 639.551 1283.11 638.559 1286.35 634.904L1288.77 632.172C1293.55 626.773 1292.66 621.233 1285.06 614.496L1274.03 604.735L1242.94 639.857L1250.26 646.331L1262.89 632.049L1265.45 634.312C1268.76 637.242 1269.13 639.74 1266.25 642.995L1261.37 648.505C1258.86 651.348 1258.63 652.188 1258.21 653.368L1265.75 660.047L1265.81 659.987ZM1280.57 619.332C1283.19 621.642 1283.31 623.719 1281.1 626.214L1278.02 629.698C1275.55 632.483 1273.04 631.927 1270.32 629.506L1267.47 626.991L1277.03 616.193L1280.57 619.332Z" fill="black"/>
</g>
</g>
</g>
</svg>
